<svg xmlns="http://www.w3.org/2000/svg" xmlns:xlink="http://www.w3.org/1999/xlink" contentStyleType="text/css" height="465.625px" preserveAspectRatio="none" style="width:358px;height:465px;" version="1.1" viewBox="0 0 358 465" width="358.3333px" zoomAndPan="magnify"><defs><linearGradient id="g1ayzpt1bxhrdp0" x1="50%" x2="50%" y1="0%" y2="100%"><stop offset="0%" stop-color="#EDF0F2"/><stop offset="100%" stop-color="#E9ECEF"/></linearGradient><linearGradient id="g1ayzpt1bxhrdp1" x1="50%" x2="50%" y1="0%" y2="100%"><stop offset="0%" stop-color="#FFFFFF"/><stop offset="100%" stop-color="#EDF0F2"/></linearGradient><linearGradient id="g1ayzpt1bxhrdp2" x1="50%" x2="50%" y1="0%" y2="100%"><stop offset="0%" stop-color="#59B6EC"/><stop offset="100%" stop-color="#2FA4E7"/></linearGradient></defs><g><rect fill="url(#g1ayzpt1bxhrdp0)" height="47.168" id="_title" rx="4.1667" ry="4.1667" style="stroke:#BABDBF;stroke-width:1.0416666666666667;" width="314.1663" x="20.8333" y="20.8333"/><text fill="#2FA4E7" font-family="Verdana" font-size="20.8333" font-weight="bold" lengthAdjust="spacing" textLength="291.2496" x="32.2917" y="51.6296">Activity Diagram (Guest)</text><ellipse cx="179.479" cy="89.8763" fill="#033C73" rx="10.4167" ry="10.4167" style="stroke:#2683B9;stroke-width:1.0416666666666667;"/><polygon fill="url(#g1ayzpt1bxhrdp1)" points="179.479,121.1263,179.479,121.1263,191.979,133.6263,179.479,146.1263,179.479,146.1263,166.979,133.6263,179.479,121.1263" style="stroke:#BABDBF;stroke-width:1.0416666666666667;"/><rect fill="url(#g1ayzpt1bxhrdp2)" height="37.4674" rx="4.1667" ry="4.1667" style="stroke:#2FA4E7;stroke-width:1.0416666666666667;" width="118.8273" x="29.2694" y="226.3346"/><text fill="#FFFFFF" font-family="Verdana" font-size="12.5" lengthAdjust="spacing" textLength="95.9106" x="40.7277" y="249.3958">Browse catalog</text><rect fill="url(#g1ayzpt1bxhrdp2)" height="37.4674" rx="4.1667" ry="4.1667" style="stroke:#2FA4E7;stroke-width:1.0416666666666667;" width="130.6864" x="23.3398" y="292.4479"/><text fill="#FFFFFF" font-family="Verdana" font-size="12.5" lengthAdjust="spacing" textLength="107.7698" x="34.7982" y="315.509">View item details</text><polygon fill="url(#g1ayzpt1bxhrdp1)" points="88.6831,166.9596,101.1831,179.4596,88.6831,191.9596,76.1831,179.4596,88.6831,166.9596" style="stroke:#BABDBF;stroke-width:1.0416666666666667;"/><polygon fill="url(#g1ayzpt1bxhrdp1)" points="88.6831,350.7487,88.6831,350.7487,101.1831,363.2487,88.6831,375.7487,88.6831,375.7487,76.1831,363.2487,88.6831,350.7487" style="stroke:#BABDBF;stroke-width:1.0416666666666667;"/><rect fill="url(#g1ayzpt1bxhrdp2)" height="37.4674" rx="4.1667" ry="4.1667" style="stroke:#2FA4E7;stroke-width:1.0416666666666667;" width="128.715" x="203.3813" y="166.9596"/><text fill="#FFFFFF" font-family="Verdana" font-size="12.5" lengthAdjust="spacing" textLength="105.7983" x="214.8397" y="190.0208">Register account</text><rect fill="url(#g1ayzpt1bxhrdp2)" height="37.4674" rx="4.1667" ry="4.1667" style="stroke:#2FA4E7;stroke-width:1.0416666666666667;" width="135.7585" x="199.8596" y="225.2604"/><text fill="#FFFFFF" font-family="Verdana" font-size="12.5" lengthAdjust="spacing" textLength="112.8418" x="211.318" y="248.3215">Log in as member</text><polygon fill="url(#g1ayzpt1bxhrdp1)" points="179.479,386.1654,179.479,386.1654,191.979,398.6654,179.479,411.1654,179.479,411.1654,166.979,398.6654,179.479,386.1654" style="stroke:#BABDBF;stroke-width:1.0416666666666667;"/><ellipse cx="179.479" cy="443.457" fill="none" rx="11.4583" ry="11.4583" style="stroke:#2683B9;stroke-width:1.0416666666666667;"/><ellipse cx="179.479" cy="443.457" fill="none" rx="6.25" ry="6.25" style="stroke:#2683B9;stroke-width:1.0416666666666667;"/><line style="stroke:#2FA4E7;stroke-width:3.125;" x1="88.6831" x2="88.6831" y1="263.8021" y2="292.4479"/><polygon fill="#2FA4E7" points="84.5164,282.0313,88.6831,292.4479,92.8497,282.0313,88.6831,286.1979" style="stroke:#2FA4E7;stroke-width:1.0416666666666667;"/><line style="stroke:#2FA4E7;stroke-width:3.125;" x1="88.6831" x2="88.6831" y1="191.9596" y2="226.3346"/><polygon fill="#2FA4E7" points="84.5164,215.918,88.6831,226.3346,92.8497,215.918,88.6831,220.0846" style="stroke:#2FA4E7;stroke-width:1.0416666666666667;"/><line style="stroke:#2FA4E7;stroke-width:3.125;" x1="101.1831" x2="166.5263" y1="363.2487" y2="363.2487"/><polygon fill="#2FA4E7" points="162.3596,284.6354,166.5263,274.2188,170.693,284.6354,166.5263,280.4688" style="stroke:#2FA4E7;stroke-width:3.125;"/><line style="stroke:#2FA4E7;stroke-width:3.125;" x1="166.5263" x2="166.5263" y1="179.4596" y2="363.2487"/><line style="stroke:#2FA4E7;stroke-width:3.125;" x1="166.5263" x2="101.1831" y1="179.4596" y2="179.4596"/><polygon fill="#2FA4E7" points="111.5997,175.293,101.1831,179.4596,111.5997,183.6263,107.4331,179.4596" style="stroke:#2FA4E7;stroke-width:1.0416666666666667;"/><line style="stroke:#2FA4E7;stroke-width:3.125;" x1="88.6831" x2="88.6831" y1="329.9154" y2="350.7487"/><polygon fill="#2FA4E7" points="84.5164,340.332,88.6831,350.7487,92.8497,340.332,88.6831,344.4987" style="stroke:#2FA4E7;stroke-width:1.0416666666666667;"/><line style="stroke:#2FA4E7;stroke-width:3.125;" x1="267.7389" x2="267.7389" y1="204.4271" y2="225.2604"/><polygon fill="#2FA4E7" points="263.5722,214.8438,267.7389,225.2604,271.9055,214.8438,267.7389,219.0104" style="stroke:#2FA4E7;stroke-width:1.0416666666666667;"/><line style="stroke:#2FA4E7;stroke-width:3.125;" x1="166.979" x2="88.6831" y1="133.6263" y2="133.6263"/><line style="stroke:#2FA4E7;stroke-width:3.125;" x1="88.6831" x2="88.6831" y1="133.6263" y2="166.9596"/><polygon fill="#2FA4E7" points="84.5164,156.543,88.6831,166.9596,92.8497,156.543,88.6831,160.7096" style="stroke:#2FA4E7;stroke-width:1.0416666666666667;"/><line style="stroke:#2FA4E7;stroke-width:3.125;" x1="191.979" x2="267.7389" y1="133.6263" y2="133.6263"/><line style="stroke:#2FA4E7;stroke-width:3.125;" x1="267.7389" x2="267.7389" y1="133.6263" y2="166.9596"/><polygon fill="#2FA4E7" points="263.5722,156.543,267.7389,166.9596,271.9055,156.543,267.7389,160.7096" style="stroke:#2FA4E7;stroke-width:1.0416666666666667;"/><line style="stroke:#2FA4E7;stroke-width:3.125;" x1="88.6831" x2="88.6831" y1="375.7487" y2="398.6654"/><line style="stroke:#2FA4E7;stroke-width:3.125;" x1="88.6831" x2="166.979" y1="398.6654" y2="398.6654"/><polygon fill="#2FA4E7" points="156.5623,394.4987,166.979,398.6654,156.5623,402.832,160.729,398.6654" style="stroke:#2FA4E7;stroke-width:1.0416666666666667;"/><line style="stroke:#2FA4E7;stroke-width:3.125;" x1="267.7389" x2="267.7389" y1="262.7279" y2="398.6654"/><line style="stroke:#2FA4E7;stroke-width:3.125;" x1="267.7389" x2="191.979" y1="398.6654" y2="398.6654"/><polygon fill="#2FA4E7" points="202.3956,394.4987,191.979,398.6654,202.3956,402.832,198.229,398.6654" style="stroke:#2FA4E7;stroke-width:1.0416666666666667;"/><line style="stroke:#2FA4E7;stroke-width:3.125;" x1="179.479" x2="179.479" y1="100.293" y2="121.1263"/><polygon fill="#2FA4E7" points="175.3123,110.7096,179.479,121.1263,183.6456,110.7096,179.479,114.8763" style="stroke:#2FA4E7;stroke-width:1.0416666666666667;"/><line style="stroke:#2FA4E7;stroke-width:3.125;" x1="179.479" x2="179.479" y1="411.1654" y2="431.9987"/><polygon fill="#2FA4E7" points="175.3123,421.582,179.479,431.9987,183.6456,421.582,179.479,425.7487" style="stroke:#2FA4E7;stroke-width:1.0416666666666667;"/><!--SRC=[NOwz3i8m48FtFCMnjQ_GJY0a5YO6zYErqfFoKoLN8jwUb0uWlDZI9ri-w8m0iiYh1qTZLDI3ZbRbAVgYix3B7AYxh2ZQ6sEASjPcLTJErFN6Si7cr9InWFKJDmsdd6gZbfLzSkCNt0MLH15eWhBuClxqgSxYyRyztE2aA3AnjMcDkbU6Qt8aaRXGG7WWZmPnskzjRzFo1W00]--></g></svg>