<svg xmlns="http://www.w3.org/2000/svg" xmlns:xlink="http://www.w3.org/1999/xlink" contentStyleType="text/css" height="896.875px" preserveAspectRatio="none" style="width:835px;height:896px;" version="1.1" viewBox="0 0 835 896" width="835.4167px" zoomAndPan="magnify"><defs><linearGradient id="g1wn9asoqz9flr0" x1="50%" x2="50%" y1="0%" y2="100%"><stop offset="0%" stop-color="#EDF0F2"/><stop offset="100%" stop-color="#E9ECEF"/></linearGradient><linearGradient id="g1wn9asoqz9flr1" x1="50%" x2="50%" y1="0%" y2="100%"><stop offset="0%" stop-color="#59B6EC"/><stop offset="100%" stop-color="#2FA4E7"/></linearGradient><linearGradient id="g1wn9asoqz9flr2" x1="50%" x2="50%" y1="0%" y2="100%"><stop offset="0%" stop-color="#FFFFFF"/><stop offset="100%" stop-color="#EDF0F2"/></linearGradient></defs><g><rect fill="url(#g1wn9asoqz9flr0)" height="47.168" id="_title" rx="4.1667" ry="4.1667" style="stroke:#BABDBF;stroke-width:1.0416666666666667;" width="341.6321" x="245.3654" y="20.8333"/><text fill="#2FA4E7" font-family="Verdana" font-size="20.8333" font-weight="bold" lengthAdjust="spacing" textLength="318.7154" x="256.8237" y="51.6296">Activity Diagram (Member)</text><ellipse cx="406.8064" cy="89.8763" fill="#033C73" rx="10.4167" ry="10.4167" style="stroke:#2683B9;stroke-width:1.0416666666666667;"/><rect fill="url(#g1wn9asoqz9flr1)" height="37.4674" rx="4.1667" ry="4.1667" style="stroke:#2FA4E7;stroke-width:1.0416666666666667;" width="60.8317" x="376.3906" y="121.1263"/><text fill="#FFFFFF" font-family="Verdana" font-size="12.5" lengthAdjust="spacing" textLength="37.915" x="387.8489" y="144.1874">Log in</text><polygon fill="url(#g1wn9asoqz9flr2)" points="406.8064,225.2604,406.8064,225.2604,419.3064,237.7604,406.8064,250.2604,406.8064,250.2604,394.3064,237.7604,406.8064,225.2604" style="stroke:#BABDBF;stroke-width:1.0416666666666667;"/><rect fill="url(#g1wn9asoqz9flr1)" height="37.4674" rx="4.1667" ry="4.1667" style="stroke:#2FA4E7;stroke-width:1.0416666666666667;" width="118.8273" x="17.3879" y="330.4688"/><text fill="#FFFFFF" font-family="Verdana" font-size="12.5" lengthAdjust="spacing" textLength="95.9106" x="28.8462" y="353.5299">Browse catalog</text><rect fill="url(#g1wn9asoqz9flr1)" height="37.4674" rx="4.1667" ry="4.1667" style="stroke:#2FA4E7;stroke-width:1.0416666666666667;" width="130.6864" x="11.4583" y="388.7695"/><text fill="#FFFFFF" font-family="Verdana" font-size="12.5" lengthAdjust="spacing" textLength="107.7698" x="22.9167" y="411.8306">View item details</text><rect fill="url(#g1wn9asoqz9flr1)" height="37.4674" rx="4.1667" ry="4.1667" style="stroke:#2FA4E7;stroke-width:1.0416666666666667;" width="124.6195" x="14.4918" y="462.6953"/><text fill="#FFFFFF" font-family="Verdana" font-size="12.5" lengthAdjust="spacing" textLength="101.7029" x="25.9501" y="485.7564">Add item to cart</text><polygon fill="url(#g1wn9asoqz9flr2)" points="76.8016,271.0938,89.3016,283.5938,76.8016,296.0938,64.3016,283.5938,76.8016,271.0938" style="stroke:#BABDBF;stroke-width:1.0416666666666667;"/><polygon fill="url(#g1wn9asoqz9flr2)" points="76.8016,550.1628,76.8016,550.1628,89.3016,562.6628,76.8016,575.1628,76.8016,575.1628,64.3016,562.6628,76.8016,550.1628" style="stroke:#BABDBF;stroke-width:1.0416666666666667;"/><rect fill="url(#g1wn9asoqz9flr1)" height="37.4674" rx="4.1667" ry="4.1667" style="stroke:#2FA4E7;stroke-width:1.0416666666666667;" width="106.6264" x="252.1535" y="271.0938"/><text fill="#FFFFFF" font-family="Verdana" font-size="12.5" lengthAdjust="spacing" textLength="83.7097" x="263.6119" y="294.1549">View account</text><polygon fill="url(#g1wn9asoqz9flr2)" points="305.4667,388.7695,305.4667,388.7695,317.9667,401.2695,305.4667,413.7695,305.4667,413.7695,292.9667,401.2695,305.4667,388.7695" style="stroke:#BABDBF;stroke-width:1.0416666666666667;"/><rect fill="url(#g1wn9asoqz9flr1)" height="37.4674" rx="4.1667" ry="4.1667" style="stroke:#2FA4E7;stroke-width:1.0416666666666667;" width="129.6855" x="169.2281" y="445.0195"/><text fill="#FFFFFF" font-family="Verdana" font-size="12.5" lengthAdjust="spacing" textLength="106.7688" x="180.6864" y="468.0806">Get order history</text><rect fill="url(#g1wn9asoqz9flr1)" height="37.4674" rx="4.1667" ry="4.1667" style="stroke:#2FA4E7;stroke-width:1.0416666666666667;" width="121.9584" x="319.7469" y="445.0195"/><text fill="#FFFFFF" font-family="Verdana" font-size="12.5" lengthAdjust="spacing" textLength="99.0417" x="331.2052" y="468.0806">Update account</text><polygon fill="url(#g1wn9asoqz9flr2)" points="305.4667,586.1491,305.4667,586.1491,317.9667,598.6491,305.4667,611.1491,305.4667,611.1491,292.9667,598.6491,305.4667,586.1491" style="stroke:#BABDBF;stroke-width:1.0416666666666667;"/><polygon fill="url(#g1wn9asoqz9flr2)" points="305.4667,329.3945,317.9667,341.8945,305.4667,354.3945,292.9667,341.8945,305.4667,329.3945" style="stroke:#BABDBF;stroke-width:1.0416666666666667;"/><polygon fill="url(#g1wn9asoqz9flr2)" points="305.4667,631.9824,305.4667,631.9824,317.9667,644.4824,305.4667,656.9824,305.4667,656.9824,292.9667,644.4824,305.4667,631.9824" style="stroke:#BABDBF;stroke-width:1.0416666666666667;"/><rect fill="url(#g1wn9asoqz9flr1)" height="37.4674" rx="4.1667" ry="4.1667" style="stroke:#2FA4E7;stroke-width:1.0416666666666667;" width="85.8134" x="580.0649" y="271.0938"/><text fill="#FFFFFF" font-family="Verdana" font-size="12.5" lengthAdjust="spacing" textLength="62.8967" x="591.5232" y="294.1549">Check out</text><polygon fill="url(#g1wn9asoqz9flr2)" points="622.9716,388.7695,622.9716,388.7695,635.4716,401.2695,622.9716,413.7695,622.9716,413.7695,610.4716,401.2695,622.9716,388.7695" style="stroke:#BABDBF;stroke-width:1.0416666666666667;"/><rect fill="url(#g1wn9asoqz9flr1)" height="37.4674" rx="4.1667" ry="4.1667" style="stroke:#2FA4E7;stroke-width:1.0416666666666667;" width="158.8664" x="468.7887" y="445.0195"/><text fill="#FFFFFF" font-family="Verdana" font-size="12.5" lengthAdjust="spacing" textLength="135.9497" x="480.247" y="468.0806">Update/remove items</text><rect fill="url(#g1wn9asoqz9flr1)" height="37.4674" rx="4.1667" ry="4.1667" style="stroke:#2FA4E7;stroke-width:1.0416666666666667;" width="126.9145" x="649.3642" y="445.0195"/><text fill="#FFFFFF" font-family="Verdana" font-size="12.5" lengthAdjust="spacing" textLength="103.9978" x="660.8226" y="468.0806">Submit payment</text><rect fill="url(#g1wn9asoqz9flr1)" height="37.4674" rx="4.1667" ry="4.1667" style="stroke:#2FA4E7;stroke-width:1.0416666666666667;" width="128.6662" x="648.4884" y="518.9453"/><text fill="#FFFFFF" font-family="Verdana" font-size="12.5" lengthAdjust="spacing" textLength="105.7495" x="659.9467" y="542.0064">Send notification</text><polygon fill="url(#g1wn9asoqz9flr2)" points="622.9716,630.9082,622.9716,630.9082,635.4716,643.4082,622.9716,655.9082,622.9716,655.9082,610.4716,643.4082,622.9716,630.9082" style="stroke:#BABDBF;stroke-width:1.0416666666666667;"/><polygon fill="url(#g1wn9asoqz9flr2)" points="622.9716,329.3945,635.4716,341.8945,622.9716,354.3945,610.4716,341.8945,622.9716,329.3945" style="stroke:#BABDBF;stroke-width:1.0416666666666667;"/><polygon fill="url(#g1wn9asoqz9flr2)" points="622.9716,677.8158,622.9716,677.8158,635.4716,690.3158,622.9716,702.8158,622.9716,702.8158,610.4716,690.3158,622.9716,677.8158" style="stroke:#BABDBF;stroke-width:1.0416666666666667;"/><polygon fill="url(#g1wn9asoqz9flr2)" points="406.8064,713.2324,406.8064,713.2324,419.3064,725.7324,406.8064,738.2324,406.8064,738.2324,394.3064,725.7324,406.8064,713.2324" style="stroke:#BABDBF;stroke-width:1.0416666666666667;"/><polygon fill="url(#g1wn9asoqz9flr2)" points="406.8064,179.4271,419.3064,191.9271,406.8064,204.4271,394.3064,191.9271,406.8064,179.4271" style="stroke:#BABDBF;stroke-width:1.0416666666666667;"/><polygon fill="url(#g1wn9asoqz9flr2)" points="406.8064,759.0658,406.8064,759.0658,419.3064,771.5658,406.8064,784.0658,406.8064,784.0658,394.3064,771.5658,406.8064,759.0658" style="stroke:#BABDBF;stroke-width:1.0416666666666667;"/><rect fill="url(#g1wn9asoqz9flr1)" height="37.4674" rx="4.1667" ry="4.1667" style="stroke:#2FA4E7;stroke-width:1.0416666666666667;" width="69.9076" x="371.8526" y="804.8991"/><text fill="#FFFFFF" font-family="Verdana" font-size="12.5" lengthAdjust="spacing" textLength="46.991" x="383.311" y="827.9602">Log out</text><ellipse cx="406.8064" cy="874.6582" fill="none" rx="11.4583" ry="11.4583" style="stroke:#2683B9;stroke-width:1.0416666666666667;"/><ellipse cx="406.8064" cy="874.6582" fill="none" rx="6.25" ry="6.25" style="stroke:#2683B9;stroke-width:1.0416666666666667;"/><line style="stroke:#2FA4E7;stroke-width:3.125;" x1="406.8064" x2="406.8064" y1="100.293" y2="121.1263"/><polygon fill="#2FA4E7" points="402.6398,110.7096,406.8064,121.1263,410.9731,110.7096,406.8064,114.8763" style="stroke:#2FA4E7;stroke-width:1.0416666666666667;"/><line style="stroke:#2FA4E7;stroke-width:3.125;" x1="76.8016" x2="76.8016" y1="367.9362" y2="388.7695"/><polygon fill="#2FA4E7" points="72.6349,378.3529,76.8016,388.7695,80.9682,378.3529,76.8016,382.5195" style="stroke:#2FA4E7;stroke-width:1.0416666666666667;"/><line style="stroke:#2FA4E7;stroke-width:3.125;" x1="76.8016" x2="76.8016" y1="426.237" y2="462.6953"/><polygon fill="#2FA4E7" points="72.6349,452.2786,76.8016,462.6953,80.9682,452.2786,76.8016,456.4453" style="stroke:#2FA4E7;stroke-width:1.0416666666666667;"/><line style="stroke:#2FA4E7;stroke-width:3.125;" x1="76.8016" x2="76.8016" y1="296.0938" y2="330.4688"/><polygon fill="#2FA4E7" points="72.6349,320.0521,76.8016,330.4688,80.9682,320.0521,76.8016,324.2188" style="stroke:#2FA4E7;stroke-width:1.0416666666666667;"/><line style="stroke:#2FA4E7;stroke-width:3.125;" x1="89.3016" x2="154.6448" y1="562.6628" y2="562.6628"/><polygon fill="#2FA4E7" points="150.4781,417.9199,154.6448,407.5033,158.8114,417.9199,154.6448,413.7533" style="stroke:#2FA4E7;stroke-width:3.125;"/><line style="stroke:#2FA4E7;stroke-width:3.125;" x1="154.6448" x2="154.6448" y1="283.5938" y2="562.6628"/><line style="stroke:#2FA4E7;stroke-width:3.125;" x1="154.6448" x2="89.3016" y1="283.5938" y2="283.5938"/><polygon fill="#2FA4E7" points="99.7182,279.4271,89.3016,283.5938,99.7182,287.7604,95.5516,283.5938" style="stroke:#2FA4E7;stroke-width:1.0416666666666667;"/><line style="stroke:#2FA4E7;stroke-width:3.125;" x1="76.8016" x2="76.8016" y1="500.1628" y2="550.1628"/><polygon fill="#2FA4E7" points="72.6349,539.7461,76.8016,550.1628,80.9682,539.7461,76.8016,543.9128" style="stroke:#2FA4E7;stroke-width:1.0416666666666667;"/><line style="stroke:#2FA4E7;stroke-width:3.125;" x1="292.9667" x2="234.0708" y1="401.2695" y2="401.2695"/><line style="stroke:#2FA4E7;stroke-width:3.125;" x1="234.0708" x2="234.0708" y1="401.2695" y2="445.0195"/><polygon fill="#2FA4E7" points="229.9042,434.6029,234.0708,445.0195,238.2375,434.6029,234.0708,438.7695" style="stroke:#2FA4E7;stroke-width:1.0416666666666667;"/><line style="stroke:#2FA4E7;stroke-width:3.125;" x1="317.9667" x2="380.7261" y1="401.2695" y2="401.2695"/><line style="stroke:#2FA4E7;stroke-width:3.125;" x1="380.7261" x2="380.7261" y1="401.2695" y2="445.0195"/><polygon fill="#2FA4E7" points="376.5594,434.6029,380.7261,445.0195,384.8928,434.6029,380.7261,438.7695" style="stroke:#2FA4E7;stroke-width:1.0416666666666667;"/><line style="stroke:#2FA4E7;stroke-width:3.125;" x1="234.0708" x2="234.0708" y1="482.487" y2="598.6491"/><line style="stroke:#2FA4E7;stroke-width:3.125;" x1="234.0708" x2="292.9667" y1="598.6491" y2="598.6491"/><polygon fill="#2FA4E7" points="282.55,594.4824,292.9667,598.6491,282.55,602.8158,286.7167,598.6491" style="stroke:#2FA4E7;stroke-width:1.0416666666666667;"/><line style="stroke:#2FA4E7;stroke-width:3.125;" x1="380.7261" x2="380.7261" y1="482.487" y2="598.6491"/><line style="stroke:#2FA4E7;stroke-width:3.125;" x1="380.7261" x2="317.9667" y1="598.6491" y2="598.6491"/><polygon fill="#2FA4E7" points="328.3834,594.4824,317.9667,598.6491,328.3834,602.8158,324.2167,598.6491" style="stroke:#2FA4E7;stroke-width:1.0416666666666667;"/><line style="stroke:#2FA4E7;stroke-width:3.125;" x1="305.4667" x2="305.4667" y1="354.3945" y2="388.7695"/><polygon fill="#2FA4E7" points="301.3,378.3529,305.4667,388.7695,309.6334,378.3529,305.4667,382.5195" style="stroke:#2FA4E7;stroke-width:1.0416666666666667;"/><line style="stroke:#2FA4E7;stroke-width:3.125;" x1="317.9667" x2="454.2053" y1="644.4824" y2="644.4824"/><polygon fill="#2FA4E7" points="450.0387,515.8366,454.2053,505.4199,458.372,515.8366,454.2053,511.6699" style="stroke:#2FA4E7;stroke-width:3.125;"/><line style="stroke:#2FA4E7;stroke-width:3.125;" x1="454.2053" x2="454.2053" y1="341.8945" y2="644.4824"/><line style="stroke:#2FA4E7;stroke-width:3.125;" x1="454.2053" x2="317.9667" y1="341.8945" y2="341.8945"/><polygon fill="#2FA4E7" points="328.3834,337.7279,317.9667,341.8945,328.3834,346.0612,324.2167,341.8945" style="stroke:#2FA4E7;stroke-width:1.0416666666666667;"/><line style="stroke:#2FA4E7;stroke-width:3.125;" x1="305.4667" x2="305.4667" y1="611.1491" y2="631.9824"/><polygon fill="#2FA4E7" points="301.3,621.5658,305.4667,631.9824,309.6334,621.5658,305.4667,625.7324" style="stroke:#2FA4E7;stroke-width:1.0416666666666667;"/><line style="stroke:#2FA4E7;stroke-width:3.125;" x1="305.4667" x2="305.4667" y1="308.5612" y2="329.3945"/><polygon fill="#2FA4E7" points="301.3,318.9779,305.4667,329.3945,309.6334,318.9779,305.4667,323.1445" style="stroke:#2FA4E7;stroke-width:1.0416666666666667;"/><line style="stroke:#2FA4E7;stroke-width:3.125;" x1="712.8215" x2="712.8215" y1="482.487" y2="518.9453"/><polygon fill="#2FA4E7" points="708.6548,508.5286,712.8215,518.9453,716.9881,508.5286,712.8215,512.6953" style="stroke:#2FA4E7;stroke-width:1.0416666666666667;"/><line style="stroke:#2FA4E7;stroke-width:3.125;" x1="610.4716" x2="548.2218" y1="401.2695" y2="401.2695"/><line style="stroke:#2FA4E7;stroke-width:3.125;" x1="548.2218" x2="548.2218" y1="401.2695" y2="445.0195"/><polygon fill="#2FA4E7" points="544.0552,434.6029,548.2218,445.0195,552.3885,434.6029,548.2218,438.7695" style="stroke:#2FA4E7;stroke-width:1.0416666666666667;"/><line style="stroke:#2FA4E7;stroke-width:3.125;" x1="635.4716" x2="712.8215" y1="401.2695" y2="401.2695"/><line style="stroke:#2FA4E7;stroke-width:3.125;" x1="712.8215" x2="712.8215" y1="401.2695" y2="445.0195"/><polygon fill="#2FA4E7" points="708.6548,434.6029,712.8215,445.0195,716.9881,434.6029,712.8215,438.7695" style="stroke:#2FA4E7;stroke-width:1.0416666666666667;"/><line style="stroke:#2FA4E7;stroke-width:3.125;" x1="548.2218" x2="548.2218" y1="482.487" y2="643.4082"/><line style="stroke:#2FA4E7;stroke-width:3.125;" x1="548.2218" x2="610.4716" y1="643.4082" y2="643.4082"/><polygon fill="#2FA4E7" points="600.0549,639.2415,610.4716,643.4082,600.0549,647.5749,604.2216,643.4082" style="stroke:#2FA4E7;stroke-width:1.0416666666666667;"/><line style="stroke:#2FA4E7;stroke-width:3.125;" x1="712.8215" x2="712.8215" y1="556.4128" y2="643.4082"/><line style="stroke:#2FA4E7;stroke-width:3.125;" x1="712.8215" x2="635.4716" y1="643.4082" y2="643.4082"/><polygon fill="#2FA4E7" points="645.8883,639.2415,635.4716,643.4082,645.8883,647.5749,641.7216,643.4082" style="stroke:#2FA4E7;stroke-width:1.0416666666666667;"/><line style="stroke:#2FA4E7;stroke-width:3.125;" x1="622.9716" x2="622.9716" y1="354.3945" y2="388.7695"/><polygon fill="#2FA4E7" points="618.8049,378.3529,622.9716,388.7695,627.1383,378.3529,622.9716,382.5195" style="stroke:#2FA4E7;stroke-width:1.0416666666666667;"/><line style="stroke:#2FA4E7;stroke-width:3.125;" x1="635.4716" x2="789.6545" y1="690.3158" y2="690.3158"/><polygon fill="#2FA4E7" points="785.4879,552.7995,789.6545,542.3828,793.8212,552.7995,789.6545,548.6328" style="stroke:#2FA4E7;stroke-width:3.125;"/><line style="stroke:#2FA4E7;stroke-width:3.125;" x1="789.6545" x2="789.6545" y1="341.8945" y2="690.3158"/><line style="stroke:#2FA4E7;stroke-width:3.125;" x1="789.6545" x2="635.4716" y1="341.8945" y2="341.8945"/><polygon fill="#2FA4E7" points="645.8883,337.7279,635.4716,341.8945,645.8883,346.0612,641.7216,341.8945" style="stroke:#2FA4E7;stroke-width:1.0416666666666667;"/><line style="stroke:#2FA4E7;stroke-width:3.125;" x1="622.9716" x2="622.9716" y1="655.9082" y2="677.8158"/><polygon fill="#2FA4E7" points="618.8049,667.3991,622.9716,677.8158,627.1383,667.3991,622.9716,671.5658" style="stroke:#2FA4E7;stroke-width:1.0416666666666667;"/><line style="stroke:#2FA4E7;stroke-width:3.125;" x1="622.9716" x2="622.9716" y1="308.5612" y2="329.3945"/><polygon fill="#2FA4E7" points="618.8049,318.9779,622.9716,329.3945,627.1383,318.9779,622.9716,323.1445" style="stroke:#2FA4E7;stroke-width:1.0416666666666667;"/><line style="stroke:#2FA4E7;stroke-width:3.125;" x1="394.3064" x2="76.8016" y1="237.7604" y2="237.7604"/><line style="stroke:#2FA4E7;stroke-width:3.125;" x1="76.8016" x2="76.8016" y1="237.7604" y2="271.0938"/><polygon fill="#2FA4E7" points="72.6349,260.6771,76.8016,271.0938,80.9682,260.6771,76.8016,264.8438" style="stroke:#2FA4E7;stroke-width:1.0416666666666667;"/><line style="stroke:#2FA4E7;stroke-width:3.125;" x1="419.3064" x2="622.9716" y1="237.7604" y2="237.7604"/><line style="stroke:#2FA4E7;stroke-width:3.125;" x1="622.9716" x2="622.9716" y1="237.7604" y2="271.0938"/><polygon fill="#2FA4E7" points="618.8049,260.6771,622.9716,271.0938,627.1383,260.6771,622.9716,264.8438" style="stroke:#2FA4E7;stroke-width:1.0416666666666667;"/><line style="stroke:#2FA4E7;stroke-width:3.125;" x1="305.4667" x2="305.4667" y1="237.7604" y2="271.0938"/><polygon fill="#2FA4E7" points="301.3,260.6771,305.4667,271.0938,309.6334,260.6771,305.4667,264.8438" style="stroke:#2FA4E7;stroke-width:1.0416666666666667;"/><line style="stroke:#2FA4E7;stroke-width:3.125;" x1="76.8016" x2="76.8016" y1="575.1628" y2="725.7324"/><line style="stroke:#2FA4E7;stroke-width:3.125;" x1="76.8016" x2="394.3064" y1="725.7324" y2="725.7324"/><polygon fill="#2FA4E7" points="383.8898,721.5658,394.3064,725.7324,383.8898,729.8991,388.0564,725.7324" style="stroke:#2FA4E7;stroke-width:1.0416666666666667;"/><line style="stroke:#2FA4E7;stroke-width:3.125;" x1="622.9716" x2="622.9716" y1="702.8158" y2="725.7324"/><line style="stroke:#2FA4E7;stroke-width:3.125;" x1="622.9716" x2="419.3064" y1="725.7324" y2="725.7324"/><polygon fill="#2FA4E7" points="429.7231,721.5658,419.3064,725.7324,429.7231,729.8991,425.5564,725.7324" style="stroke:#2FA4E7;stroke-width:1.0416666666666667;"/><line style="stroke:#2FA4E7;stroke-width:3.125;" x1="305.4667" x2="305.4667" y1="656.9824" y2="725.7324"/><polygon fill="#2FA4E7" points="301.3,715.3158,305.4667,725.7324,309.6334,715.3158,305.4667,719.4824" style="stroke:#2FA4E7;stroke-width:1.0416666666666667;"/><line style="stroke:#2FA4E7;stroke-width:3.125;" x1="406.8064" x2="406.8064" y1="738.2324" y2="743.4408"/><line style="stroke:#2FA4E7;stroke-width:3.125;" x1="406.8064" x2="406.8064" y1="204.4271" y2="225.2604"/><polygon fill="#2FA4E7" points="402.6398,214.8438,406.8064,225.2604,410.9731,214.8438,406.8064,219.0104" style="stroke:#2FA4E7;stroke-width:1.0416666666666667;"/><line style="stroke:#2FA4E7;stroke-width:3.125;" x1="419.3064" x2="808.4045" y1="771.5658" y2="771.5658"/><polygon fill="#2FA4E7" points="804.2379,575.7324,808.4045,565.3158,812.5712,575.7324,808.4045,571.5658" style="stroke:#2FA4E7;stroke-width:3.125;"/><line style="stroke:#2FA4E7;stroke-width:3.125;" x1="808.4045" x2="808.4045" y1="191.9271" y2="771.5658"/><line style="stroke:#2FA4E7;stroke-width:3.125;" x1="808.4045" x2="419.3064" y1="191.9271" y2="191.9271"/><polygon fill="#2FA4E7" points="429.7231,187.7604,419.3064,191.9271,429.7231,196.0938,425.5564,191.9271" style="stroke:#2FA4E7;stroke-width:1.0416666666666667;"/><line style="stroke:#2FA4E7;stroke-width:3.125;" x1="406.8064" x2="406.8064" y1="743.4408" y2="759.0658"/><polygon fill="#2FA4E7" points="402.6398,748.6491,406.8064,759.0658,410.9731,748.6491,406.8064,752.8158" style="stroke:#2FA4E7;stroke-width:1.0416666666666667;"/><line style="stroke:#2FA4E7;stroke-width:3.125;" x1="406.8064" x2="406.8064" y1="158.5938" y2="179.4271"/><polygon fill="#2FA4E7" points="402.6398,169.0104,406.8064,179.4271,410.9731,169.0104,406.8064,173.1771" style="stroke:#2FA4E7;stroke-width:1.0416666666666667;"/><line style="stroke:#2FA4E7;stroke-width:3.125;" x1="406.8064" x2="406.8064" y1="784.0658" y2="804.8991"/><polygon fill="#2FA4E7" points="402.6398,794.4824,406.8064,804.8991,410.9731,794.4824,406.8064,798.6491" style="stroke:#2FA4E7;stroke-width:1.0416666666666667;"/><line style="stroke:#2FA4E7;stroke-width:3.125;" x1="406.8064" x2="406.8064" y1="842.3665" y2="863.1999"/><polygon fill="#2FA4E7" points="402.6398,852.7832,406.8064,863.1999,410.9731,852.7832,406.8064,856.9499" style="stroke:#2FA4E7;stroke-width:1.0416666666666667;"/><!--SRC=[hLAnJiGm3Dtp5MQxczYlqm4I2qm8TZSnhKKILwbxrVqzQQCYscEuatXJ4hyylsVvJbiA19RIu0cZCShg2OvM-SHwXYV69c60tIk5cjBU6DCh9ZNcy28DSAoCITGHge6CVcIrBUpsyyrYJyjvmY_YWiD3aZ6pB2fwQQfryODf15OAu4YHVR-f7vqhPPMiaBJQj8AnPKz_UYdQQAqCyUBVgiiwquAjte_kCob8SfIWvLubdQlh_hrt3fKk7KsWw8gB6_8zjcI_G8P_3LTCtYSASg9vzFsLyTw6Eh12X-T0stY5a4D25ELFpil04cyUmPhYiIO_lPaLiUpjF9QyoT9z0m00]--></g></svg>