<svg xmlns="http://www.w3.org/2000/svg" xmlns:xlink="http://www.w3.org/1999/xlink" contentStyleType="text/css" height="1387.5px" preserveAspectRatio="none" style="width:1020px;height:1387px;background:#FFFFFF;" version="1.1" viewBox="0 0 1020 1387" width="1020.8333px" zoomAndPan="magnify"><defs><linearGradient id="g8339r2ihnjao0" x1="50%" x2="50%" y1="0%" y2="100%"><stop offset="0%" stop-color="#EDF0F2"/><stop offset="100%" stop-color="#E9ECEF"/></linearGradient><linearGradient id="g8339r2ihnjao1" x1="50%" x2="50%" y1="0%" y2="100%"><stop offset="0%" stop-color="#FFFFFF"/><stop offset="100%" stop-color="#EDF0F2"/></linearGradient><linearGradient id="g8339r2ihnjao2" x1="50%" x2="50%" y1="0%" y2="100%"><stop offset="0%" stop-color="#59B6EC"/><stop offset="100%" stop-color="#2FA4E7"/></linearGradient></defs><g><rect fill="url(#g8339r2ihnjao0)" height="47.168" id="_title" rx="4.1667" ry="4.1667" style="stroke:#BABDBF;stroke-width:1.0416666666666667;" width="320.4631" x="348.6893" y="20.8333"/><text fill="#2FA4E7" font-family="Verdana" font-size="20.8333" font-weight="bold" lengthAdjust="spacing" textLength="297.5464" x="360.1476" y="51.6296">Activity Diagram (Admin)</text><ellipse cx="503.7125" cy="89.8763" fill="#033C73" rx="10.4167" ry="10.4167" style="stroke:#2683B9;stroke-width:1.0416666666666667;"/><polygon fill="url(#g8339r2ihnjao1)" points="503.7125,121.1263,503.7125,121.1263,516.2125,133.6263,503.7125,146.1263,503.7125,146.1263,491.2125,133.6263,503.7125,121.1263" style="stroke:#BABDBF;stroke-width:1.0416666666666667;"/><rect fill="url(#g8339r2ihnjao2)" height="37.4674" rx="4.1667" ry="4.1667" style="stroke:#2FA4E7;stroke-width:1.0416666666666667;" width="118.8273" x="353.5029" y="226.3346"/><text fill="#FFFFFF" font-family="Verdana" font-size="12.5" lengthAdjust="spacing" textLength="95.9106" x="364.9612" y="249.3958">Browse catalog</text><rect fill="url(#g8339r2ihnjao2)" height="37.4674" rx="4.1667" ry="4.1667" style="stroke:#2FA4E7;stroke-width:1.0416666666666667;" width="130.6864" x="347.5733" y="292.4479"/><text fill="#FFFFFF" font-family="Verdana" font-size="12.5" lengthAdjust="spacing" textLength="107.7698" x="359.0317" y="315.509">View item details</text><polygon fill="url(#g8339r2ihnjao1)" points="412.9166,166.9596,425.4166,179.4596,412.9166,191.9596,400.4166,179.4596,412.9166,166.9596" style="stroke:#BABDBF;stroke-width:1.0416666666666667;"/><polygon fill="url(#g8339r2ihnjao1)" points="412.9166,350.7487,412.9166,350.7487,425.4166,363.2487,412.9166,375.7487,412.9166,375.7487,400.4166,363.2487,412.9166,350.7487" style="stroke:#BABDBF;stroke-width:1.0416666666666667;"/><rect fill="url(#g8339r2ihnjao2)" height="37.4674" rx="4.1667" ry="4.1667" style="stroke:#2FA4E7;stroke-width:1.0416666666666667;" width="128.715" x="527.6148" y="166.9596"/><text fill="#FFFFFF" font-family="Verdana" font-size="12.5" lengthAdjust="spacing" textLength="105.7983" x="539.0732" y="190.0208">Register account</text><rect fill="url(#g8339r2ihnjao2)" height="37.4674" rx="4.1667" ry="4.1667" style="stroke:#2FA4E7;stroke-width:1.0416666666666667;" width="135.7585" x="524.0931" y="225.2604"/><text fill="#FFFFFF" font-family="Verdana" font-size="12.5" lengthAdjust="spacing" textLength="112.8418" x="535.5515" y="248.3215">Log in as member</text><polygon fill="url(#g8339r2ihnjao1)" points="503.7125,386.1654,503.7125,386.1654,516.2125,398.6654,503.7125,411.1654,503.7125,411.1654,491.2125,398.6654,503.7125,386.1654" style="stroke:#BABDBF;stroke-width:1.0416666666666667;"/><ellipse cx="503.7125" cy="443.457" fill="none" rx="11.4583" ry="11.4583" style="stroke:#2683B9;stroke-width:1.0416666666666667;"/><ellipse cx="503.7125" cy="443.457" fill="none" rx="6.25" ry="6.25" style="stroke:#2683B9;stroke-width:1.0416666666666667;"/><ellipse cx="503.7125" cy="475.7487" fill="#033C73" rx="10.4167" ry="10.4167" style="stroke:#2683B9;stroke-width:1.0416666666666667;"/><rect fill="url(#g8339r2ihnjao2)" height="37.4674" rx="4.1667" ry="4.1667" style="stroke:#2FA4E7;stroke-width:1.0416666666666667;" width="60.8317" x="473.2966" y="506.9987"/><text fill="#FFFFFF" font-family="Verdana" font-size="12.5" lengthAdjust="spacing" textLength="37.915" x="484.7549" y="530.0598">Log in</text><polygon fill="url(#g8339r2ihnjao1)" points="503.7125,611.1328,503.7125,611.1328,516.2125,623.6328,503.7125,636.1328,503.7125,636.1328,491.2125,623.6328,503.7125,611.1328" style="stroke:#BABDBF;stroke-width:1.0416666666666667;"/><rect fill="url(#g8339r2ihnjao2)" height="37.4674" rx="4.1667" ry="4.1667" style="stroke:#2FA4E7;stroke-width:1.0416666666666667;" width="102.9765" x="196.3298" y="656.9661"/><text fill="#FFFFFF" font-family="Verdana" font-size="12.5" lengthAdjust="spacing" textLength="80.0598" x="207.7881" y="680.0273">View catalog</text><polygon fill="url(#g8339r2ihnjao1)" points="247.818,761.1003,247.818,761.1003,260.318,773.6003,247.818,786.1003,247.818,786.1003,235.318,773.6003,247.818,761.1003" style="stroke:#BABDBF;stroke-width:1.0416666666666667;"/><rect fill="url(#g8339r2ihnjao2)" height="37.4674" rx="4.1667" ry="4.1667" style="stroke:#2FA4E7;stroke-width:1.0416666666666667;" width="99.6623" x="11.4583" y="817.3503"/><text fill="#FFFFFF" font-family="Verdana" font-size="12.5" lengthAdjust="spacing" textLength="76.7456" x="22.9167" y="840.4114">Add product</text><rect fill="url(#g8339r2ihnjao2)" height="37.4674" rx="4.1667" ry="4.1667" style="stroke:#2FA4E7;stroke-width:1.0416666666666667;" width="150.7975" x="232.667" y="817.3503"/><text fill="#FFFFFF" font-family="Verdana" font-size="12.5" lengthAdjust="spacing" textLength="127.8809" x="244.1254" y="840.4114">View product details</text><polygon fill="url(#g8339r2ihnjao1)" points="308.0658,880.8594,308.0658,880.8594,320.5658,893.3594,308.0658,905.8594,308.0658,905.8594,295.5658,893.3594,308.0658,880.8594" style="stroke:#BABDBF;stroke-width:1.0416666666666667;"/><rect fill="url(#g8339r2ihnjao2)" height="37.4674" rx="4.1667" ry="4.1667" style="stroke:#2FA4E7;stroke-width:1.0416666666666667;" width="172.465" x="121.5373" y="937.1094"/><text fill="#FFFFFF" font-family="Verdana" font-size="12.5" lengthAdjust="spacing" textLength="149.5483" x="132.9956" y="960.1705">Update/remove product</text><rect fill="url(#g8339r2ihnjao2)" height="37.4674" rx="4.1667" ry="4.1667" style="stroke:#2FA4E7;stroke-width:1.0416666666666667;" width="179.7587" x="314.8356" y="937.1094"/><text fill="#FFFFFF" font-family="Verdana" font-size="12.5" lengthAdjust="spacing" textLength="156.842" x="326.2939" y="960.1705">Add/update/remove item</text><polygon fill="url(#g8339r2ihnjao1)" points="308.0658,1041.3086,308.0658,1041.3086,320.5658,1053.8086,308.0658,1066.3086,308.0658,1066.3086,295.5658,1053.8086,308.0658,1041.3086" style="stroke:#BABDBF;stroke-width:1.0416666666666667;"/><polygon fill="url(#g8339r2ihnjao1)" points="247.818,1122.5586,247.818,1122.5586,260.318,1135.0586,247.818,1147.5586,247.818,1147.5586,235.318,1135.0586,247.818,1122.5586" style="stroke:#BABDBF;stroke-width:1.0416666666666667;"/><polygon fill="url(#g8339r2ihnjao1)" points="247.818,715.2669,260.318,727.7669,247.818,740.2669,235.318,727.7669,247.818,715.2669" style="stroke:#BABDBF;stroke-width:1.0416666666666667;"/><polygon fill="url(#g8339r2ihnjao1)" points="247.818,1168.3919,247.818,1168.3919,260.318,1180.8919,247.818,1193.3919,247.818,1193.3919,235.318,1180.8919,247.818,1168.3919" style="stroke:#BABDBF;stroke-width:1.0416666666666667;"/><rect fill="url(#g8339r2ihnjao2)" height="37.4674" rx="4.1667" ry="4.1667" style="stroke:#2FA4E7;stroke-width:1.0416666666666667;" width="96.8913" x="601.1993" y="656.9661"/><text fill="#FFFFFF" font-family="Verdana" font-size="12.5" lengthAdjust="spacing" textLength="73.9746" x="612.6577" y="680.0273">View orders</text><rect fill="url(#g8339r2ihnjao2)" height="37.4674" rx="4.1667" ry="4.1667" style="stroke:#2FA4E7;stroke-width:1.0416666666666667;" width="135.9965" x="581.6467" y="761.1003"/><text fill="#FFFFFF" font-family="Verdana" font-size="12.5" lengthAdjust="spacing" textLength="113.0798" x="593.1051" y="784.1614">View order details</text><polygon fill="url(#g8339r2ihnjao1)" points="619.9463,835.026,679.3437,835.026,691.8437,847.526,679.3437,860.026,619.9463,860.026,607.4463,847.526,619.9463,835.026" style="stroke:#BABDBF;stroke-width:1.0416666666666667;"/><text fill="#343A40" font-family="Verdana" font-size="12.5" lengthAdjust="spacing" textLength="48.9807" x="625.1546" y="851.8534">Cancel?</text><rect fill="url(#g8339r2ihnjao2)" height="37.4674" rx="4.1667" ry="4.1667" style="stroke:#2FA4E7;stroke-width:1.0416666666666667;" width="102.7873" x="540.4277" y="922.4609"/><text fill="#FFFFFF" font-family="Verdana" font-size="12.5" lengthAdjust="spacing" textLength="79.8706" x="551.886" y="945.5221">Cancel order</text><polygon fill="url(#g8339r2ihnjao1)" points="649.645,1026.6602,649.645,1026.6602,662.145,1039.1602,649.645,1051.6602,649.645,1051.6602,637.145,1039.1602,649.645,1026.6602" style="stroke:#BABDBF;stroke-width:1.0416666666666667;"/><polygon fill="url(#g8339r2ihnjao1)" points="649.645,715.2669,662.145,727.7669,649.645,740.2669,637.145,727.7669,649.645,715.2669" style="stroke:#BABDBF;stroke-width:1.0416666666666667;"/><polygon fill="url(#g8339r2ihnjao1)" points="649.645,1087.1419,649.645,1087.1419,662.145,1099.6419,649.645,1112.1419,649.645,1112.1419,637.145,1099.6419,649.645,1087.1419" style="stroke:#BABDBF;stroke-width:1.0416666666666667;"/><rect fill="url(#g8339r2ihnjao2)" height="37.4674" rx="4.1667" ry="4.1667" style="stroke:#2FA4E7;stroke-width:1.0416666666666667;" width="113.1388" x="821.463" y="656.9661"/><text fill="#FFFFFF" font-family="Verdana" font-size="12.5" lengthAdjust="spacing" textLength="90.2222" x="832.9213" y="680.0273">View accounts</text><rect fill="url(#g8339r2ihnjao2)" height="37.4674" rx="4.1667" ry="4.1667" style="stroke:#2FA4E7;stroke-width:1.0416666666666667;" width="152.2441" x="801.9104" y="761.1003"/><text fill="#FFFFFF" font-family="Verdana" font-size="12.5" lengthAdjust="spacing" textLength="129.3274" x="813.3687" y="784.1614">View account details</text><polygon fill="url(#g8339r2ihnjao1)" points="848.9716,835.026,907.0933,835.026,919.5933,847.526,907.0933,860.026,848.9716,860.026,836.4716,847.526,848.9716,835.026" style="stroke:#BABDBF;stroke-width:1.0416666666666667;"/><text fill="#343A40" font-family="Verdana" font-size="12.5" lengthAdjust="spacing" textLength="47.7051" x="854.1799" y="851.8534">Delete?</text><rect fill="url(#g8339r2ihnjao2)" height="37.4674" rx="4.1667" ry="4.1667" style="stroke:#2FA4E7;stroke-width:1.0416666666666667;" width="117.7592" x="761.967" y="922.4609"/><text fill="#FFFFFF" font-family="Verdana" font-size="12.5" lengthAdjust="spacing" textLength="94.8425" x="773.4253" y="945.5221">Delete account</text><polygon fill="url(#g8339r2ihnjao1)" points="878.0324,1026.6602,878.0324,1026.6602,890.5324,1039.1602,878.0324,1051.6602,878.0324,1051.6602,865.5324,1039.1602,878.0324,1026.6602" style="stroke:#BABDBF;stroke-width:1.0416666666666667;"/><polygon fill="url(#g8339r2ihnjao1)" points="878.0324,715.2669,890.5324,727.7669,878.0324,740.2669,865.5324,727.7669,878.0324,715.2669" style="stroke:#BABDBF;stroke-width:1.0416666666666667;"/><polygon fill="url(#g8339r2ihnjao1)" points="878.0324,1087.1419,878.0324,1087.1419,890.5324,1099.6419,878.0324,1112.1419,878.0324,1112.1419,865.5324,1099.6419,878.0324,1087.1419" style="stroke:#BABDBF;stroke-width:1.0416666666666667;"/><polygon fill="url(#g8339r2ihnjao1)" points="503.7125,1203.8086,503.7125,1203.8086,516.2125,1216.3086,503.7125,1228.8086,503.7125,1228.8086,491.2125,1216.3086,503.7125,1203.8086" style="stroke:#BABDBF;stroke-width:1.0416666666666667;"/><polygon fill="url(#g8339r2ihnjao1)" points="503.7125,565.2995,516.2125,577.7995,503.7125,590.2995,491.2125,577.7995,503.7125,565.2995" style="stroke:#BABDBF;stroke-width:1.0416666666666667;"/><polygon fill="url(#g8339r2ihnjao1)" points="503.7125,1249.6419,503.7125,1249.6419,516.2125,1262.1419,503.7125,1274.6419,503.7125,1274.6419,491.2125,1262.1419,503.7125,1249.6419" style="stroke:#BABDBF;stroke-width:1.0416666666666667;"/><rect fill="url(#g8339r2ihnjao2)" height="37.4674" rx="4.1667" ry="4.1667" style="stroke:#2FA4E7;stroke-width:1.0416666666666667;" width="69.9076" x="468.7586" y="1295.4753"/><text fill="#FFFFFF" font-family="Verdana" font-size="12.5" lengthAdjust="spacing" textLength="46.991" x="480.217" y="1318.5364">Log out</text><ellipse cx="503.7125" cy="1365.2344" fill="none" rx="11.4583" ry="11.4583" style="stroke:#2683B9;stroke-width:1.0416666666666667;"/><ellipse cx="503.7125" cy="1365.2344" fill="none" rx="6.25" ry="6.25" style="stroke:#2683B9;stroke-width:1.0416666666666667;"/><line style="stroke:#2FA4E7;stroke-width:3.125;" x1="412.9166" x2="412.9166" y1="263.8021" y2="292.4479"/><polygon fill="#2FA4E7" points="408.7499,282.0313,412.9166,292.4479,417.0832,282.0313,412.9166,286.1979" style="stroke:#2FA4E7;stroke-width:1.0416666666666667;"/><line style="stroke:#2FA4E7;stroke-width:3.125;" x1="412.9166" x2="412.9166" y1="191.9596" y2="226.3346"/><polygon fill="#2FA4E7" points="408.7499,215.918,412.9166,226.3346,417.0832,215.918,412.9166,220.0846" style="stroke:#2FA4E7;stroke-width:1.0416666666666667;"/><line style="stroke:#2FA4E7;stroke-width:3.125;" x1="425.4166" x2="490.7598" y1="363.2487" y2="363.2487"/><polygon fill="#2FA4E7" points="486.5931,284.6354,490.7598,274.2188,494.9265,284.6354,490.7598,280.4688" style="stroke:#2FA4E7;stroke-width:3.125;"/><line style="stroke:#2FA4E7;stroke-width:3.125;" x1="490.7598" x2="490.7598" y1="179.4596" y2="363.2487"/><line style="stroke:#2FA4E7;stroke-width:3.125;" x1="490.7598" x2="425.4166" y1="179.4596" y2="179.4596"/><polygon fill="#2FA4E7" points="435.8332,175.293,425.4166,179.4596,435.8332,183.6263,431.6666,179.4596" style="stroke:#2FA4E7;stroke-width:1.0416666666666667;"/><line style="stroke:#2FA4E7;stroke-width:3.125;" x1="412.9166" x2="412.9166" y1="329.9154" y2="350.7487"/><polygon fill="#2FA4E7" points="408.7499,340.332,412.9166,350.7487,417.0832,340.332,412.9166,344.4987" style="stroke:#2FA4E7;stroke-width:1.0416666666666667;"/><line style="stroke:#2FA4E7;stroke-width:3.125;" x1="591.9724" x2="591.9724" y1="204.4271" y2="225.2604"/><polygon fill="#2FA4E7" points="587.8057,214.8438,591.9724,225.2604,596.139,214.8438,591.9724,219.0104" style="stroke:#2FA4E7;stroke-width:1.0416666666666667;"/><line style="stroke:#2FA4E7;stroke-width:3.125;" x1="491.2125" x2="412.9166" y1="133.6263" y2="133.6263"/><line style="stroke:#2FA4E7;stroke-width:3.125;" x1="412.9166" x2="412.9166" y1="133.6263" y2="166.9596"/><polygon fill="#2FA4E7" points="408.7499,156.543,412.9166,166.9596,417.0832,156.543,412.9166,160.7096" style="stroke:#2FA4E7;stroke-width:1.0416666666666667;"/><line style="stroke:#2FA4E7;stroke-width:3.125;" x1="516.2125" x2="591.9724" y1="133.6263" y2="133.6263"/><line style="stroke:#2FA4E7;stroke-width:3.125;" x1="591.9724" x2="591.9724" y1="133.6263" y2="166.9596"/><polygon fill="#2FA4E7" points="587.8057,156.543,591.9724,166.9596,596.139,156.543,591.9724,160.7096" style="stroke:#2FA4E7;stroke-width:1.0416666666666667;"/><line style="stroke:#2FA4E7;stroke-width:3.125;" x1="412.9166" x2="412.9166" y1="375.7487" y2="398.6654"/><line style="stroke:#2FA4E7;stroke-width:3.125;" x1="412.9166" x2="491.2125" y1="398.6654" y2="398.6654"/><polygon fill="#2FA4E7" points="480.7958,394.4987,491.2125,398.6654,480.7958,402.832,484.9625,398.6654" style="stroke:#2FA4E7;stroke-width:1.0416666666666667;"/><line style="stroke:#2FA4E7;stroke-width:3.125;" x1="591.9724" x2="591.9724" y1="262.7279" y2="398.6654"/><line style="stroke:#2FA4E7;stroke-width:3.125;" x1="591.9724" x2="516.2125" y1="398.6654" y2="398.6654"/><polygon fill="#2FA4E7" points="526.6291,394.4987,516.2125,398.6654,526.6291,402.832,522.4625,398.6654" style="stroke:#2FA4E7;stroke-width:1.0416666666666667;"/><line style="stroke:#2FA4E7;stroke-width:3.125;" x1="503.7125" x2="503.7125" y1="100.293" y2="121.1263"/><polygon fill="#2FA4E7" points="499.5458,110.7096,503.7125,121.1263,507.8791,110.7096,503.7125,114.8763" style="stroke:#2FA4E7;stroke-width:1.0416666666666667;"/><line style="stroke:#2FA4E7;stroke-width:3.125;" x1="503.7125" x2="503.7125" y1="411.1654" y2="431.9987"/><polygon fill="#2FA4E7" points="499.5458,421.582,503.7125,431.9987,507.8791,421.582,503.7125,425.7487" style="stroke:#2FA4E7;stroke-width:1.0416666666666667;"/><line style="stroke:#2FA4E7;stroke-width:3.125;" x1="503.7125" x2="503.7125" y1="486.1654" y2="506.9987"/><polygon fill="#2FA4E7" points="499.5458,496.582,503.7125,506.9987,507.8791,496.582,503.7125,500.7487" style="stroke:#2FA4E7;stroke-width:1.0416666666666667;"/><line style="stroke:#2FA4E7;stroke-width:3.125;" x1="295.5658" x2="207.7698" y1="893.3594" y2="893.3594"/><line style="stroke:#2FA4E7;stroke-width:3.125;" x1="207.7698" x2="207.7698" y1="893.3594" y2="937.1094"/><polygon fill="#2FA4E7" points="203.6031,926.6927,207.7698,937.1094,211.9364,926.6927,207.7698,930.8594" style="stroke:#2FA4E7;stroke-width:1.0416666666666667;"/><line style="stroke:#2FA4E7;stroke-width:3.125;" x1="320.5658" x2="404.715" y1="893.3594" y2="893.3594"/><line style="stroke:#2FA4E7;stroke-width:3.125;" x1="404.715" x2="404.715" y1="893.3594" y2="937.1094"/><polygon fill="#2FA4E7" points="400.5483,926.6927,404.715,937.1094,408.8816,926.6927,404.715,930.8594" style="stroke:#2FA4E7;stroke-width:1.0416666666666667;"/><line style="stroke:#2FA4E7;stroke-width:3.125;" x1="207.7698" x2="207.7698" y1="974.5768" y2="1053.8086"/><line style="stroke:#2FA4E7;stroke-width:3.125;" x1="207.7698" x2="295.5658" y1="1053.8086" y2="1053.8086"/><polygon fill="#2FA4E7" points="285.1491,1049.6419,295.5658,1053.8086,285.1491,1057.9753,289.3158,1053.8086" style="stroke:#2FA4E7;stroke-width:1.0416666666666667;"/><line style="stroke:#2FA4E7;stroke-width:3.125;" x1="404.715" x2="404.715" y1="974.5768" y2="1053.8086"/><line style="stroke:#2FA4E7;stroke-width:3.125;" x1="404.715" x2="320.5658" y1="1053.8086" y2="1053.8086"/><polygon fill="#2FA4E7" points="330.9825,1049.6419,320.5658,1053.8086,330.9825,1057.9753,326.8158,1053.8086" style="stroke:#2FA4E7;stroke-width:1.0416666666666667;"/><line style="stroke:#2FA4E7;stroke-width:3.125;" x1="308.0658" x2="308.0658" y1="854.8177" y2="880.8594"/><polygon fill="#2FA4E7" points="303.8991,870.4427,308.0658,880.8594,312.2325,870.4427,308.0658,874.6094" style="stroke:#2FA4E7;stroke-width:1.0416666666666667;"/><line style="stroke:#2FA4E7;stroke-width:3.125;" x1="235.318" x2="61.2895" y1="773.6003" y2="773.6003"/><line style="stroke:#2FA4E7;stroke-width:3.125;" x1="61.2895" x2="61.2895" y1="773.6003" y2="817.3503"/><polygon fill="#2FA4E7" points="57.1228,806.9336,61.2895,817.3503,65.4561,806.9336,61.2895,811.1003" style="stroke:#2FA4E7;stroke-width:1.0416666666666667;"/><line style="stroke:#2FA4E7;stroke-width:3.125;" x1="260.318" x2="308.0658" y1="773.6003" y2="773.6003"/><line style="stroke:#2FA4E7;stroke-width:3.125;" x1="308.0658" x2="308.0658" y1="773.6003" y2="817.3503"/><polygon fill="#2FA4E7" points="303.8991,806.9336,308.0658,817.3503,312.2325,806.9336,308.0658,811.1003" style="stroke:#2FA4E7;stroke-width:1.0416666666666667;"/><line style="stroke:#2FA4E7;stroke-width:3.125;" x1="61.2895" x2="61.2895" y1="854.8177" y2="1135.0586"/><line style="stroke:#2FA4E7;stroke-width:3.125;" x1="61.2895" x2="235.318" y1="1135.0586" y2="1135.0586"/><polygon fill="#2FA4E7" points="224.9013,1130.8919,235.318,1135.0586,224.9013,1139.2253,229.068,1135.0586" style="stroke:#2FA4E7;stroke-width:1.0416666666666667;"/><line style="stroke:#2FA4E7;stroke-width:3.125;" x1="308.0658" x2="308.0658" y1="1066.3086" y2="1135.0586"/><line style="stroke:#2FA4E7;stroke-width:3.125;" x1="308.0658" x2="260.318" y1="1135.0586" y2="1135.0586"/><polygon fill="#2FA4E7" points="270.7347,1130.8919,260.318,1135.0586,270.7347,1139.2253,266.568,1135.0586" style="stroke:#2FA4E7;stroke-width:1.0416666666666667;"/><line style="stroke:#2FA4E7;stroke-width:3.125;" x1="247.818" x2="247.818" y1="740.2669" y2="761.1003"/><polygon fill="#2FA4E7" points="243.6513,750.6836,247.818,761.1003,251.9847,750.6836,247.818,754.8503" style="stroke:#2FA4E7;stroke-width:1.0416666666666667;"/><line style="stroke:#2FA4E7;stroke-width:3.125;" x1="260.318" x2="507.0943" y1="1180.8919" y2="1180.8919"/><polygon fill="#2FA4E7" points="502.9277,995.4102,507.0943,984.9935,511.261,995.4102,507.0943,991.2435" style="stroke:#2FA4E7;stroke-width:3.125;"/><line style="stroke:#2FA4E7;stroke-width:3.125;" x1="507.0943" x2="507.0943" y1="727.7669" y2="1180.8919"/><line style="stroke:#2FA4E7;stroke-width:3.125;" x1="507.0943" x2="260.318" y1="727.7669" y2="727.7669"/><polygon fill="#2FA4E7" points="270.7347,723.6003,260.318,727.7669,270.7347,731.9336,266.568,727.7669" style="stroke:#2FA4E7;stroke-width:1.0416666666666667;"/><line style="stroke:#2FA4E7;stroke-width:3.125;" x1="247.818" x2="247.818" y1="1147.5586" y2="1168.3919"/><polygon fill="#2FA4E7" points="243.6513,1157.9753,247.818,1168.3919,251.9847,1157.9753,247.818,1162.1419" style="stroke:#2FA4E7;stroke-width:1.0416666666666667;"/><line style="stroke:#2FA4E7;stroke-width:3.125;" x1="247.818" x2="247.818" y1="694.4336" y2="715.2669"/><polygon fill="#2FA4E7" points="243.6513,704.8503,247.818,715.2669,251.9847,704.8503,247.818,709.0169" style="stroke:#2FA4E7;stroke-width:1.0416666666666667;"/><line style="stroke:#2FA4E7;stroke-width:3.125;" x1="607.4463" x2="591.8213" y1="847.526" y2="847.526"/><line style="stroke:#2FA4E7;stroke-width:3.125;" x1="591.8213" x2="591.8213" y1="847.526" y2="922.4609"/><polygon fill="#2FA4E7" points="587.6546,912.0443,591.8213,922.4609,595.988,912.0443,591.8213,916.2109" style="stroke:#2FA4E7;stroke-width:1.0416666666666667;"/><text fill="#343A40" font-family="Verdana" font-size="12.5" lengthAdjust="spacing" textLength="21.8384" x="597.0296" y="884.1125">Yes</text><line style="stroke:#2FA4E7;stroke-width:3.125;" x1="691.8437" x2="707.4687" y1="847.526" y2="847.526"/><line style="stroke:#2FA4E7;stroke-width:3.125;" x1="707.4687" x2="707.4687" y1="847.526" y2="1039.1602"/><line style="stroke:#2FA4E7;stroke-width:3.125;" x1="707.4687" x2="662.145" y1="1039.1602" y2="1039.1602"/><polygon fill="#2FA4E7" points="672.5616,1034.9935,662.145,1039.1602,672.5616,1043.3268,668.395,1039.1602" style="stroke:#2FA4E7;stroke-width:1.0416666666666667;"/><text fill="#343A40" font-family="Verdana" font-size="12.5" lengthAdjust="spacing" textLength="16.9983" x="716.8437" y="851.8534">No</text><line style="stroke:#2FA4E7;stroke-width:3.125;" x1="591.8213" x2="591.8213" y1="959.9284" y2="1039.1602"/><line style="stroke:#2FA4E7;stroke-width:3.125;" x1="591.8213" x2="637.145" y1="1039.1602" y2="1039.1602"/><polygon fill="#2FA4E7" points="626.7283,1034.9935,637.145,1039.1602,626.7283,1043.3268,630.895,1039.1602" style="stroke:#2FA4E7;stroke-width:1.0416666666666667;"/><line style="stroke:#2FA4E7;stroke-width:3.125;" x1="649.645" x2="649.645" y1="798.5677" y2="835.026"/><polygon fill="#2FA4E7" points="645.4783,824.6094,649.645,835.026,653.8116,824.6094,649.645,828.776" style="stroke:#2FA4E7;stroke-width:1.0416666666666667;"/><line style="stroke:#2FA4E7;stroke-width:3.125;" x1="649.645" x2="649.645" y1="740.2669" y2="761.1003"/><polygon fill="#2FA4E7" points="645.4783,750.6836,649.645,761.1003,653.8116,750.6836,649.645,754.8503" style="stroke:#2FA4E7;stroke-width:1.0416666666666667;"/><line style="stroke:#2FA4E7;stroke-width:3.125;" x1="662.145" x2="747.3836" y1="1099.6419" y2="1099.6419"/><polygon fill="#2FA4E7" points="743.217,935.5143,747.3836,925.0977,751.5503,935.5143,747.3836,931.3477" style="stroke:#2FA4E7;stroke-width:3.125;"/><line style="stroke:#2FA4E7;stroke-width:3.125;" x1="747.3836" x2="747.3836" y1="727.7669" y2="1099.6419"/><line style="stroke:#2FA4E7;stroke-width:3.125;" x1="747.3836" x2="662.145" y1="727.7669" y2="727.7669"/><polygon fill="#2FA4E7" points="672.5616,723.6003,662.145,727.7669,672.5616,731.9336,668.395,727.7669" style="stroke:#2FA4E7;stroke-width:1.0416666666666667;"/><line style="stroke:#2FA4E7;stroke-width:3.125;" x1="649.645" x2="649.645" y1="1051.6602" y2="1087.1419"/><polygon fill="#2FA4E7" points="645.4783,1076.7253,649.645,1087.1419,653.8116,1076.7253,649.645,1080.8919" style="stroke:#2FA4E7;stroke-width:1.0416666666666667;"/><line style="stroke:#2FA4E7;stroke-width:3.125;" x1="649.645" x2="649.645" y1="694.4336" y2="715.2669"/><polygon fill="#2FA4E7" points="645.4783,704.8503,649.645,715.2669,653.8116,704.8503,649.645,709.0169" style="stroke:#2FA4E7;stroke-width:1.0416666666666667;"/><line style="stroke:#2FA4E7;stroke-width:3.125;" x1="836.4716" x2="820.8466" y1="847.526" y2="847.526"/><line style="stroke:#2FA4E7;stroke-width:3.125;" x1="820.8466" x2="820.8466" y1="847.526" y2="922.4609"/><polygon fill="#2FA4E7" points="816.6799,912.0443,820.8466,922.4609,825.0132,912.0443,820.8466,916.2109" style="stroke:#2FA4E7;stroke-width:1.0416666666666667;"/><text fill="#343A40" font-family="Verdana" font-size="12.5" lengthAdjust="spacing" textLength="21.8384" x="826.0549" y="884.1125">Yes</text><line style="stroke:#2FA4E7;stroke-width:3.125;" x1="919.5933" x2="935.2183" y1="847.526" y2="847.526"/><line style="stroke:#2FA4E7;stroke-width:3.125;" x1="935.2183" x2="935.2183" y1="847.526" y2="1039.1602"/><line style="stroke:#2FA4E7;stroke-width:3.125;" x1="935.2183" x2="890.5324" y1="1039.1602" y2="1039.1602"/><polygon fill="#2FA4E7" points="900.9491,1034.9935,890.5324,1039.1602,900.9491,1043.3268,896.7824,1039.1602" style="stroke:#2FA4E7;stroke-width:1.0416666666666667;"/><text fill="#343A40" font-family="Verdana" font-size="12.5" lengthAdjust="spacing" textLength="16.9983" x="944.5933" y="851.8534">No</text><line style="stroke:#2FA4E7;stroke-width:3.125;" x1="820.8466" x2="820.8466" y1="959.9284" y2="1039.1602"/><line style="stroke:#2FA4E7;stroke-width:3.125;" x1="820.8466" x2="865.5324" y1="1039.1602" y2="1039.1602"/><polygon fill="#2FA4E7" points="855.1158,1034.9935,865.5324,1039.1602,855.1158,1043.3268,859.2824,1039.1602" style="stroke:#2FA4E7;stroke-width:1.0416666666666667;"/><line style="stroke:#2FA4E7;stroke-width:3.125;" x1="878.0324" x2="878.0324" y1="798.5677" y2="835.026"/><polygon fill="#2FA4E7" points="873.8658,824.6094,878.0324,835.026,882.1991,824.6094,878.0324,828.776" style="stroke:#2FA4E7;stroke-width:1.0416666666666667;"/><line style="stroke:#2FA4E7;stroke-width:3.125;" x1="878.0324" x2="878.0324" y1="740.2669" y2="761.1003"/><polygon fill="#2FA4E7" points="873.8658,750.6836,878.0324,761.1003,882.1991,750.6836,878.0324,754.8503" style="stroke:#2FA4E7;stroke-width:1.0416666666666667;"/><line style="stroke:#2FA4E7;stroke-width:3.125;" x1="890.5324" x2="975.1333" y1="1099.6419" y2="1099.6419"/><polygon fill="#2FA4E7" points="970.9666,935.5143,975.1333,925.0977,979.2999,935.5143,975.1333,931.3477" style="stroke:#2FA4E7;stroke-width:3.125;"/><line style="stroke:#2FA4E7;stroke-width:3.125;" x1="975.1333" x2="975.1333" y1="727.7669" y2="1099.6419"/><line style="stroke:#2FA4E7;stroke-width:3.125;" x1="975.1333" x2="890.5324" y1="727.7669" y2="727.7669"/><polygon fill="#2FA4E7" points="900.9491,723.6003,890.5324,727.7669,900.9491,731.9336,896.7824,727.7669" style="stroke:#2FA4E7;stroke-width:1.0416666666666667;"/><line style="stroke:#2FA4E7;stroke-width:3.125;" x1="878.0324" x2="878.0324" y1="1051.6602" y2="1087.1419"/><polygon fill="#2FA4E7" points="873.8658,1076.7253,878.0324,1087.1419,882.1991,1076.7253,878.0324,1080.8919" style="stroke:#2FA4E7;stroke-width:1.0416666666666667;"/><line style="stroke:#2FA4E7;stroke-width:3.125;" x1="878.0324" x2="878.0324" y1="694.4336" y2="715.2669"/><polygon fill="#2FA4E7" points="873.8658,704.8503,878.0324,715.2669,882.1991,704.8503,878.0324,709.0169" style="stroke:#2FA4E7;stroke-width:1.0416666666666667;"/><line style="stroke:#2FA4E7;stroke-width:3.125;" x1="491.2125" x2="247.818" y1="623.6328" y2="623.6328"/><line style="stroke:#2FA4E7;stroke-width:3.125;" x1="247.818" x2="247.818" y1="623.6328" y2="656.9661"/><polygon fill="#2FA4E7" points="243.6513,646.5495,247.818,656.9661,251.9847,646.5495,247.818,650.7161" style="stroke:#2FA4E7;stroke-width:1.0416666666666667;"/><line style="stroke:#2FA4E7;stroke-width:3.125;" x1="516.2125" x2="878.0324" y1="623.6328" y2="623.6328"/><line style="stroke:#2FA4E7;stroke-width:3.125;" x1="878.0324" x2="878.0324" y1="623.6328" y2="656.9661"/><polygon fill="#2FA4E7" points="873.8658,646.5495,878.0324,656.9661,882.1991,646.5495,878.0324,650.7161" style="stroke:#2FA4E7;stroke-width:1.0416666666666667;"/><line style="stroke:#2FA4E7;stroke-width:3.125;" x1="649.645" x2="649.645" y1="623.6328" y2="656.9661"/><polygon fill="#2FA4E7" points="645.4783,646.5495,649.645,656.9661,653.8116,646.5495,649.645,650.7161" style="stroke:#2FA4E7;stroke-width:1.0416666666666667;"/><line style="stroke:#2FA4E7;stroke-width:3.125;" x1="247.818" x2="247.818" y1="1193.3919" y2="1216.3086"/><line style="stroke:#2FA4E7;stroke-width:3.125;" x1="247.818" x2="491.2125" y1="1216.3086" y2="1216.3086"/><polygon fill="#2FA4E7" points="480.7958,1212.1419,491.2125,1216.3086,480.7958,1220.4753,484.9625,1216.3086" style="stroke:#2FA4E7;stroke-width:1.0416666666666667;"/><line style="stroke:#2FA4E7;stroke-width:3.125;" x1="878.0324" x2="878.0324" y1="1112.1419" y2="1216.3086"/><line style="stroke:#2FA4E7;stroke-width:3.125;" x1="878.0324" x2="516.2125" y1="1216.3086" y2="1216.3086"/><polygon fill="#2FA4E7" points="526.6291,1212.1419,516.2125,1216.3086,526.6291,1220.4753,522.4625,1216.3086" style="stroke:#2FA4E7;stroke-width:1.0416666666666667;"/><line style="stroke:#2FA4E7;stroke-width:3.125;" x1="649.645" x2="649.645" y1="1112.1419" y2="1216.3086"/><polygon fill="#2FA4E7" points="645.4783,1205.8919,649.645,1216.3086,653.8116,1205.8919,649.645,1210.0586" style="stroke:#2FA4E7;stroke-width:1.0416666666666667;"/><line style="stroke:#2FA4E7;stroke-width:3.125;" x1="503.7125" x2="503.7125" y1="1228.8086" y2="1234.0169"/><line style="stroke:#2FA4E7;stroke-width:3.125;" x1="503.7125" x2="503.7125" y1="590.2995" y2="611.1328"/><polygon fill="#2FA4E7" points="499.5458,600.7161,503.7125,611.1328,507.8791,600.7161,503.7125,604.8828" style="stroke:#2FA4E7;stroke-width:1.0416666666666667;"/><line style="stroke:#2FA4E7;stroke-width:3.125;" x1="516.2125" x2="993.8833" y1="1262.1419" y2="1262.1419"/><polygon fill="#2FA4E7" points="989.7166,1016.2435,993.8833,1005.8268,998.0499,1016.2435,993.8833,1012.0768" style="stroke:#2FA4E7;stroke-width:3.125;"/><line style="stroke:#2FA4E7;stroke-width:3.125;" x1="993.8833" x2="993.8833" y1="577.7995" y2="1262.1419"/><line style="stroke:#2FA4E7;stroke-width:3.125;" x1="993.8833" x2="516.2125" y1="577.7995" y2="577.7995"/><polygon fill="#2FA4E7" points="526.6291,573.6328,516.2125,577.7995,526.6291,581.9661,522.4625,577.7995" style="stroke:#2FA4E7;stroke-width:1.0416666666666667;"/><line style="stroke:#2FA4E7;stroke-width:3.125;" x1="503.7125" x2="503.7125" y1="1234.0169" y2="1249.6419"/><polygon fill="#2FA4E7" points="499.5458,1239.2253,503.7125,1249.6419,507.8791,1239.2253,503.7125,1243.3919" style="stroke:#2FA4E7;stroke-width:1.0416666666666667;"/><line style="stroke:#2FA4E7;stroke-width:3.125;" x1="503.7125" x2="503.7125" y1="544.4661" y2="565.2995"/><polygon fill="#2FA4E7" points="499.5458,554.8828,503.7125,565.2995,507.8791,554.8828,503.7125,559.0495" style="stroke:#2FA4E7;stroke-width:1.0416666666666667;"/><line style="stroke:#2FA4E7;stroke-width:3.125;" x1="503.7125" x2="503.7125" y1="1274.6419" y2="1295.4753"/><polygon fill="#2FA4E7" points="499.5458,1285.0586,503.7125,1295.4753,507.8791,1285.0586,503.7125,1289.2253" style="stroke:#2FA4E7;stroke-width:1.0416666666666667;"/><line style="stroke:#2FA4E7;stroke-width:3.125;" x1="503.7125" x2="503.7125" y1="1332.9427" y2="1353.776"/><polygon fill="#2FA4E7" points="499.5458,1343.3594,503.7125,1353.776,507.8791,1343.3594,503.7125,1347.526" style="stroke:#2FA4E7;stroke-width:1.0416666666666667;"/><!--SRC=[dLExRiCm3Dpr5SoMJDdZeKWRe4lHeK0BT6GamX4WMOP4n-ZVLtwabkqc3g95jdGytf7YYaza2IJvoX0MGh1cGx2NhC-QV-2WCVTeOVrQKU2D428mUevRhLcUOBqH4WCrEyJbgIJazhDPksVlwdWhaT6uF1iklZJLe9aiA6BK9cH9FDGdRMZAlVkWN0Sc3oYbgmhkGdPlBWTT00QmP8_aCq65wkGrQbqfnEfUbtjbTP6uxCap8H9dW_NcBvKuM9ivdbHcpdDPKxu_thrIK7gdAidPVH6jaZvaNETb6RU8M_BFKY7JrfDrP_fVs297jBIjHZpDavYJ30szVPe-dnlDSLwH3rTxau3cLRjKwmKBIUPfeEvIVLD8idMWZYgR8D_T07pOIJy9Irvws7Kt1pB4jE2c0usdxs4_OuZ1OwnJF1CZO3T_heh9sad-1G00]--></g></svg>