<svg xmlns="http://www.w3.org/2000/svg" xmlns:xlink="http://www.w3.org/1999/xlink" contentStyleType="text/css" height="754.1667px" preserveAspectRatio="none" style="width:947px;height:754px;" version="1.1" viewBox="0 0 947 754" width="947.9167px" zoomAndPan="magnify"><defs><linearGradient id="g73gmnpjj3x30" x1="50%" x2="50%" y1="0%" y2="100%"><stop offset="0%" stop-color="#EDF0F2"/><stop offset="100%" stop-color="#E9ECEF"/></linearGradient></defs><g><rect fill="url(#g73gmnpjj3x30)" height="47.168" id="_title" rx="4.1667" ry="4.1667" style="stroke:#BABDBF;stroke-width:1.0416666666666667;" width="236.1938" x="351.6307" y="20.8333"/><text fill="#2FA4E7" font-family="Verdana" font-size="20.8333" font-weight="bold" lengthAdjust="spacing" textLength="213.2772" x="363.0891" y="51.6296">Use Case Diagram</text><!--entity admin--><g id="elem_admin"><ellipse cx="39.9766" cy="540.3659" fill="#191970" rx="4.6875" ry="4.6875" style="stroke:#2FA4E7;stroke-width:1.0416666666666667;"/><path d="M26.9558,547.1367 L26.9558,552.3451 L36.8516,552.3451 L36.8516,554.6965 L26.9558,564.5923 L31.3752,569.0117 L39.9766,560.4103 L48.578,569.0117 L52.9974,564.5923 L43.1016,554.6965 L43.1016,552.3451 L52.9974,552.3451 L52.9974,547.1367 L26.9558,547.1367 " fill="#191970" style="stroke:#2FA4E7;stroke-width:1.0416666666666667;"/><text fill="#343A40" font-family="Verdana" font-size="12.5" lengthAdjust="spacing" textLength="40.0574" x="19.9479" y="586.8645">Admin</text></g><!--entity member--><g id="elem_member"><ellipse cx="249.3122" cy="373.6992" fill="#008000" rx="4.6875" ry="4.6875" style="stroke:#2FA4E7;stroke-width:1.0416666666666667;"/><path d="M236.2913,380.4701 L236.2913,385.6784 L246.1872,385.6784 L246.1872,388.0298 L236.2913,397.9256 L240.7108,402.3451 L249.3122,393.7436 L257.9136,402.3451 L262.333,397.9256 L252.4372,388.0298 L252.4372,385.6784 L262.333,385.6784 L262.333,380.4701 L236.2913,380.4701 " fill="#008000" style="stroke:#2FA4E7;stroke-width:1.0416666666666667;"/><text fill="#343A40" font-family="Verdana" font-size="12.5" lengthAdjust="spacing" textLength="51.416" x="223.6042" y="420.1978">Member</text></g><!--entity guest--><g id="elem_guest"><ellipse cx="523.273" cy="160.1576" fill="#FF8C00" rx="4.6875" ry="4.6875" style="stroke:#2FA4E7;stroke-width:1.0416666666666667;"/><path d="M510.2522,166.9284 L510.2522,172.1367 L520.148,172.1367 L520.148,174.4881 L510.2522,184.384 L514.6716,188.8034 L523.273,180.202 L531.8744,188.8034 L536.2938,184.384 L526.398,174.4881 L526.398,172.1367 L536.2938,172.1367 L536.2938,166.9284 L510.2522,166.9284 " fill="#FF8C00" style="stroke:#2FA4E7;stroke-width:1.0416666666666667;"/><text fill="#343A40" font-family="Verdana" font-size="12.5" lengthAdjust="spacing" textLength="36.7126" x="504.9167" y="206.6562">Guest</text></g><!--entity system--><g id="elem_system"><ellipse cx="39.9729" cy="238.2826" fill="#696969" rx="4.6875" ry="4.6875" style="stroke:#2FA4E7;stroke-width:1.0416666666666667;"/><path d="M26.9521,245.0534 L26.9521,250.2617 L36.8479,250.2617 L36.8479,252.6131 L26.9521,262.509 L31.3715,266.9284 L39.9729,258.327 L48.5744,266.9284 L52.9938,262.509 L43.0979,252.6131 L43.0979,250.2617 L52.9938,250.2617 L52.9938,245.0534 L26.9521,245.0534 " fill="#696969" style="stroke:#2FA4E7;stroke-width:1.0416666666666667;"/><text fill="#343A40" font-family="Verdana" font-size="12.5" lengthAdjust="spacing" textLength="46.6125" x="16.6667" y="284.7812">System</text></g><g id="elem_manage_catalog_item"><ellipse cx="249.3076" cy="485.656" fill="#191970" rx="89.8805" ry="20.7797" style="stroke:#2FA4E7;stroke-width:2.0833333333333335;"/><text fill="#FFFFFF" font-family="Verdana" font-size="12.5" lengthAdjust="spacing" textLength="99.7742" x="199.4205" y="487.9">Manage catalog</text></g><g id="elem_manage_store_item"><ellipse cx="249.3165" cy="564.8292" fill="#191970" rx="95.4415" ry="21.5883" style="stroke:#2FA4E7;stroke-width:2.0833333333333335;"/><text fill="#FFFFFF" font-family="Verdana" font-size="12.5" lengthAdjust="spacing" textLength="113.1165" x="192.7583" y="567.0732">Manage inventory</text></g><g id="elem_cancel_order"><ellipse cx="249.317" cy="643.9893" fill="#191970" rx="75.8066" ry="20.7797" style="stroke:#2FA4E7;stroke-width:2.0833333333333335;"/><text fill="#FFFFFF" font-family="Verdana" font-size="12.5" lengthAdjust="spacing" textLength="79.8706" x="209.3817" y="646.2333">Cancel order</text></g><g id="elem_delete_account"><ellipse cx="249.31" cy="722.1143" fill="#191970" rx="86.3933" ry="20.7797" style="stroke:#2FA4E7;stroke-width:2.0833333333333335;"/><text fill="#FFFFFF" font-family="Verdana" font-size="12.5" lengthAdjust="spacing" textLength="94.8425" x="201.8887" y="724.3583">Delete account</text></g><g id="elem_manage_cart"><ellipse cx="523.2699" cy="272.1143" fill="#008000" rx="74.624" ry="20.7797" style="stroke:#2FA4E7;stroke-width:2.0833333333333335;"/><text fill="#FFFFFF" font-family="Verdana" font-size="12.5" lengthAdjust="spacing" textLength="78.1982" x="484.1707" y="274.3583">Manage cart</text></g><g id="elem_check_out"><ellipse cx="523.273" cy="350.2393" fill="#008000" rx="63.8042" ry="20.7797" style="stroke:#2FA4E7;stroke-width:2.0833333333333335;"/><text fill="#FFFFFF" font-family="Verdana" font-size="12.5" lengthAdjust="spacing" textLength="62.8967" x="491.8246" y="352.4833">Check out</text></g><g id="elem_submit_payment"><ellipse cx="844.594" cy="350.2409" fill="#008000" rx="92.1357" ry="20.9271" style="stroke:#2FA4E7;stroke-width:2.0833333333333335;"/><text fill="#FFFFFF" font-family="Verdana" font-size="12.5" lengthAdjust="spacing" textLength="103.9978" x="792.5951" y="352.485">Submit payment</text></g><g id="elem_get_order_history"><ellipse cx="523.2745" cy="428.3666" fill="#008000" rx="93.1287" ry="21.1257" style="stroke:#2FA4E7;stroke-width:2.0833333333333335;"/><text fill="#FFFFFF" font-family="Verdana" font-size="12.5" lengthAdjust="spacing" textLength="106.7688" x="469.8901" y="430.6107">Get order history</text></g><g id="elem_login_and_logout"><ellipse cx="523.2676" cy="506.4893" fill="#008000" rx="74.2572" ry="20.7797" style="stroke:#2FA4E7;stroke-width:2.0833333333333335;"/><text fill="#FFFFFF" font-family="Verdana" font-size="12.5" lengthAdjust="spacing" textLength="77.6794" x="484.4279" y="508.7333">Login/logout</text></g><g id="elem_update_account"><ellipse cx="523.2689" cy="584.6143" fill="#008000" rx="89.3626" ry="20.7797" style="stroke:#2FA4E7;stroke-width:2.0833333333333335;"/><text fill="#FFFFFF" font-family="Verdana" font-size="12.5" lengthAdjust="spacing" textLength="99.0417" x="473.748" y="586.8583">Update account</text></g><g id="elem_view_catalog"><ellipse cx="844.5966" cy="106.4893" fill="#FF8C00" rx="75.9404" ry="20.7797" style="stroke:#2FA4E7;stroke-width:2.0833333333333335;"/><text fill="#FFFFFF" font-family="Verdana" font-size="12.5" lengthAdjust="spacing" textLength="80.0598" x="804.5667" y="108.7333">View catalog</text></g><g id="elem_view_item"><ellipse cx="844.5902" cy="184.6143" fill="#FF8C00" rx="63.2777" ry="20.7797" style="stroke:#2FA4E7;stroke-width:2.0833333333333335;"/><text fill="#FFFFFF" font-family="Verdana" font-size="12.5" lengthAdjust="spacing" textLength="62.1521" x="813.5142" y="186.8583">View item</text></g><g id="elem_register_account"><ellipse cx="844.5922" cy="262.7447" fill="#FF8C00" rx="92.7797" ry="21.0559" style="stroke:#2FA4E7;stroke-width:2.0833333333333335;"/><text fill="#FFFFFF" font-family="Verdana" font-size="12.5" lengthAdjust="spacing" textLength="105.7983" x="791.6931" y="264.9888">Register account</text></g><g id="elem_send_order_notification"><ellipse cx="249.3129" cy="218.9951" fill="#696969" rx="107.0524" ry="23.9105" style="stroke:#2FA4E7;stroke-width:2.0833333333333335;"/><text fill="#FFFFFF" font-family="Verdana" font-size="12.5" lengthAdjust="spacing" textLength="143.2739" x="177.6759" y="221.2392">Send order notification</text></g><g id="elem_send_shipment_notification"><ellipse cx="249.3175" cy="305.4481" fill="#696969" rx="117.2863" ry="25.9573" style="stroke:#2FA4E7;stroke-width:2.0833333333333335;"/><text fill="#FFFFFF" font-family="Verdana" font-size="12.5" lengthAdjust="spacing" textLength="168.2556" x="165.1897" y="307.6922">Send shipment notification</text></g><!--link admin to member--><g id="link_admin_member"><path d="M58.4583,534.1784 C74.6563,508.0638 100.9063,471.0534 132.0313,447.1159 C157.8958,427.2305 175.1143,419.4343 199.9685,411.7677 " fill="none" id="admin-to-member" style="stroke:#191970;stroke-width:3.125;"/><polygon fill="none" points="217.8854,406.2409,198.1262,405.7953,201.8107,417.74,217.8854,406.2409" style="stroke:#191970;stroke-width:3.125;"/></g><!--link member to guest--><g id="link_member_guest"><path d="M280.5833,391.3763 C306.0104,384.3971 342.0417,371.3346 366.6042,349.1992 C410.1563,309.9492 388.3958,274.7513 430.1458,233.5742 C450,213.9909 461.8115,207.0341 481.999,199.2008 " fill="none" id="member-to-guest" style="stroke:#008000;stroke-width:3.125;"/><polygon fill="none" points="499.4792,192.418,479.7381,193.3741,484.2599,205.0275,499.4792,192.418" style="stroke:#008000;stroke-width:3.125;"/></g><!--link admin to manage_catalog_item--><g id="link_admin_manage_catalog_item"><path d="M65.7188,553.0117 C76.1563,548.1367 88.4688,542.5117 99.7396,537.7409 C130.6875,524.6263 160.2569,514.0676 188.7882,504.578 " fill="none" id="admin-to-manage_catalog_item" style="stroke:#191970;stroke-width:3.125;"/><polygon fill="#191970" points="194.7188,502.6055,184.5079,501.6105,189.7766,504.2492,187.1379,509.518,194.7188,502.6055" style="stroke:#191970;stroke-width:3.125;"/></g><!--link admin to manage_store_item--><g id="link_admin_manage_store_item"><path d="M65.6042,564.8242 C87.5833,564.8242 115,564.8242 147.4688,564.8242 " fill="none" id="admin-to-manage_store_item" style="stroke:#191970;stroke-width:3.125;"/><polygon fill="#191970" points="153.7188,564.8242,144.3438,560.6576,148.5104,564.8242,144.3438,568.9909,153.7188,564.8242" style="stroke:#191970;stroke-width:3.125;"/></g><!--link admin to cancel_order--><g id="link_admin_cancel_order"><path d="M65.5104,576.1263 C83.6979,584.3659 109.2083,595.5742 132.0313,604.4076 C153.6979,612.793 172.0594,619.2463 192.8094,626.1526 " fill="none" id="admin-to-cancel_order" style="stroke:#191970;stroke-width:3.125;"/><polygon fill="#191970" points="198.7396,628.1263,191.1602,621.2122,193.7978,626.4815,188.5285,629.1191,198.7396,628.1263" style="stroke:#191970;stroke-width:3.125;"/></g><!--link admin to delete_account--><g id="link_admin_delete_account"><path d="M57.7396,595.5013 C73.6458,622.0013 99.875,659.5534 132.0313,682.5326 C147.7292,693.7513 160.9154,700.0327 179.0821,705.991 " fill="none" id="admin-to-delete_account" style="stroke:#191970;stroke-width:3.125;"/><polygon fill="#191970" points="185.0208,707.9388,177.4113,701.0579,180.0719,706.3156,174.8142,708.9763,185.0208,707.9388" style="stroke:#191970;stroke-width:3.125;"/></g><!--link member to manage_cart--><g id="link_member_manage_cart"><path d="M280.4792,386.7617 C304.25,377.4701 338.0417,363.5638 366.6042,349.1992 C395.8958,334.4701 400.8958,326.543 430.1458,311.6992 C445.8125,303.7513 457.6979,298.3324 473.3125,291.7595 " fill="none" id="member-to-manage_cart" style="stroke:#008000;stroke-width:3.125;"/><polygon fill="#008000" points="479.0729,289.3346,468.8157,289.1316,474.2726,291.3553,472.0488,296.8122,479.0729,289.3346" style="stroke:#008000;stroke-width:3.125;"/></g><!--link member to check_out--><g id="link_member_check_out"><path d="M280.4896,392.8451 C325.2813,384.9492 404.0324,371.0757 460.3553,361.1487 " fill="none" id="member-to-check_out" style="stroke:#008000;stroke-width:3.125;"/><polygon fill="#008000" points="466.5104,360.0638,456.5545,357.5877,461.3811,360.9679,458.001,365.7945,466.5104,360.0638" style="stroke:#008000;stroke-width:3.125;"/></g><!--link check_out to submit_payment--><g id="link_check_out_submit_payment"><path d="M587.3854,350.2409 C634.4479,350.2409 680.6979,350.2409 733.4479,350.2409 " fill="none" id="check_out-to-submit_payment" style="stroke:#008000;stroke-width:3.125;stroke-dasharray:7.0,7.0;"/><polygon fill="none" points="752.1979,350.2409,733.4479,343.9909,733.4479,356.4909,752.1979,350.2409" style="stroke:#008000;stroke-width:3.125;"/><text fill="#008000" font-family="Verdana" font-size="12.5" lengthAdjust="spacing" textLength="60.5835" x="653.8958" y="342.052">&#171;include&#187;</text></g><!--link member to get_order_history--><g id="link_member_get_order_history"><path d="M280.4896,401.5117 C318.4375,405.7201 378.9758,412.4457 432.7258,418.4249 " fill="none" id="member-to-get_order_history" style="stroke:#008000;stroke-width:3.125;"/><polygon fill="#008000" points="438.9375,419.1159,430.0806,413.9383,433.7611,418.5401,429.1593,422.2205,438.9375,419.1159" style="stroke:#008000;stroke-width:3.125;"/></g><!--link member to login_and_logout--><g id="link_member_login_and_logout"><path d="M280.4896,410.168 C328.875,429.4492 418.2671,465.0623 473.6733,487.1456 " fill="none" id="member-to-login_and_logout" style="stroke:#008000;stroke-width:3.125;"/><polygon fill="#008000" points="479.4792,489.4596,472.3131,482.118,474.641,487.5313,469.2277,489.8591,479.4792,489.4596" style="stroke:#008000;stroke-width:3.125;"/></g><!--link member to update_account--><g id="link_member_update_account"><path d="M280.6875,405.543 C305.8333,412.8451 341.4167,426.0326 366.6042,447.1159 C406.3854,480.418 390.4792,511.5951 430.1458,545.0326 C441.3229,554.4596 449.3382,559.4746 462.7757,565.2975 " fill="none" id="member-to-update_account" style="stroke:#008000;stroke-width:3.125;"/><polygon fill="#008000" points="468.5104,567.7826,461.565,560.2318,463.7315,565.7117,458.2516,567.8781,468.5104,567.7826" style="stroke:#008000;stroke-width:3.125;"/></g><!--link guest to view_catalog--><g id="link_guest_view_catalog"><path d="M547.2708,179.0013 C596.9583,166.8451 709.606,139.2674 780.7727,121.8612 " fill="none" id="guest-to-view_catalog" style="stroke:#FF8C00;stroke-width:3.125;"/><polygon fill="#FF8C00" points="786.8438,120.3763,776.7473,118.5563,781.7845,121.6137,778.7271,126.651,786.8438,120.3763" style="stroke:#FF8C00;stroke-width:3.125;"/></g><!--link guest to view_item--><g id="link_guest_view_item"><path d="M547.2708,184.6159 C595.5938,184.6159 702.9896,184.6159 774.6458,184.6159 " fill="none" id="guest-to-view_item" style="stroke:#FF8C00;stroke-width:3.125;"/><polygon fill="#FF8C00" points="780.8958,184.6159,771.5208,180.4492,775.6875,184.6159,771.5208,188.7826,780.8958,184.6159" style="stroke:#FF8C00;stroke-width:3.125;"/></g><!--link guest to register_account--><g id="link_guest_register_account"><path d="M547.2708,190.2409 C595.4479,202.0221 702.4916,228.2243 774.1895,245.766 " fill="none" id="guest-to-register_account" style="stroke:#FF8C00;stroke-width:3.125;"/><polygon fill="#FF8C00" points="780.2604,247.2513,772.1442,240.976,775.2013,246.0135,770.1638,249.0706,780.2604,247.2513" style="stroke:#FF8C00;stroke-width:3.125;"/></g><!--link system to send_order_notification--><g id="link_system_send_order_notification"><path d="M68.9896,254.8555 C78.6875,252.2409 89.6563,249.4076 99.7396,247.1159 C120.4688,242.4076 136.8083,239.0251 157.8604,235.0146 " fill="none" id="system-to-send_order_notification" style="stroke:#696969;stroke-width:3.125;"/><polygon fill="#696969" points="164,233.8451,154.0109,231.5064,158.8837,234.8197,155.5703,239.6925,164,233.8451" style="stroke:#696969;stroke-width:3.125;"/></g><!--link system to send_shipment_notification--><g id="link_system_send_shipment_notification"><path d="M68.9688,268.5013 C92.9479,273.4388 122.6807,279.5733 156.0453,286.4483 " fill="none" id="system-to-send_shipment_notification" style="stroke:#696969;stroke-width:3.125;"/><polygon fill="#696969" points="162.1667,287.7096,153.8255,281.7367,157.0655,286.6585,152.1437,289.8985,162.1667,287.7096" style="stroke:#696969;stroke-width:3.125;"/></g><!--SRC=[ZLHDRzim3BthLsZ8eTsXxTqh37G9bak30Gswgw7Qh2r4bWA9RXTWFtwq97ycpfP383q-CkGJNxvW1JNm76oZG6Z6t47gex2YvY97O_TuKi0hevJvP0mbqktL0LyB-jf8KHAJCGNloD5mAyiAUI4jv2WDLMCtamzT-LDRrZ6MF1Mrr0aNZelsn5SxMUYsm7VL04jsKB-1zV7Q7_bgQm4qIxODEFI1iZtnrKROmqyhT4bf-vD3g7tK-IE5PKsPfxDkOaFTEDJJ3VzXR6Z7iTkTqA8aRGGAPSgllXCFPH7AfAy_wRlBale3D4rw6kSv0k1Yrbhe71GtjW3hCt8FP1wOapUW084UA3UDHaylF9H5Q9OGvmeoZWUpE9tAOYVoxRg2_C1D4nXvUyleriVtpLijaH_5gOROW_DG5g6UkGKCS_5AkbwH4Z0CbqMqvp-RKke7ahVxSTK2cT155i2U-Nein4o7naE33e4P1V3hGlF_al0vUTOF0hf7dQnJeBOFDl32yur9Br3I33JWk1CRmQ6NKKfiA6meYGcwY1ffW_9TKY_adw0gnQ9IuzYmrY7RLVBePRzSe0ilrBXWZSuUBw0ykQr05WbUlRlxa_QsdEnQ13qXsZE-GPUP_eUBphYBpXcOLnmpaAxxf6y-lUI9KVJC3mDmVq-JNxJ2DuJVcFWZJ_ZZ8_r7vAefWAVfkFQYCqQS9KkCA0jE26_I4XQNVaOvs_SXVdt7u_zlI_pd4i-vr_VrBm00]--></g></svg>